<?xml version="1.0" encoding="UTF-8" standalone="no"?><!-- Generator: Adobe Illustrator 28.3.0, SVG Export Plug-In . SVG Version: 6.00 Build 0)  --><svg xmlns:inkscape="http://www.inkscape.org/namespaces/inkscape" xmlns:sodipodi="http://sodipodi.sourceforge.net/DTD/sodipodi-0.dtd" xmlns="http://www.w3.org/2000/svg" xmlns:svg="http://www.w3.org/2000/svg" version="1.2" viewBox="0 0 141.73 141.73" xml:space="preserve" baseProfile="tiny-ps"><title>Company Name</title><defs id="defs33"/><g id="g28"><circle class="st0" cx="70.87" cy="70.87" r="70.51" id="circle4" fill-opacity="1" fill="#1e3a8a"/><path d="m 118.68875,58.978879 c -0.39769,-0.778441 -1.03229,-1.201506 -1.90382,-1.336886 -0.69382,-0.101528 -0.68535,-0.177688 -0.41459,-0.82921 0.39768,-0.956128 0.80383,-1.912256 1.12537,-2.893769 0.44843,-1.370732 -0.66,-2.673776 -2.03072,-2.360706 -1.20152,0.27076 -2.25918,0.02538 -3.30838,-0.524603 -0.60076,-0.313069 -1.23535,-0.600753 -1.86994,-0.820747 -0.51615,-0.186148 -0.91382,0.135381 -0.9223,0.693829 0,0.363835 0,0.744595 0.0761,1.09997 0.4569,2.064559 0.94765,4.120661 0.99843,6.252912 0.0168,0.820746 0.0507,1.649955 0.0761,2.529932 -0.36383,-0.135381 -0.67691,-0.19461 -0.93075,-0.355375 -1.24381,-0.812287 -2.59762,-0.83767 -3.97682,-0.558447 -2.82607,0.566908 -5.02601,2.233787 -7.02288,4.188349 -1.049198,1.032281 -2.022249,2.140714 -2.961454,3.282991 -0.871522,1.057663 -1.683808,2.166096 -2.44533,3.308374 -1.015351,1.523036 -2.030711,3.062995 -3.30837,4.374499 -1.074588,1.099971 -2.259172,2.089945 -3.435294,3.079918 -1.345349,1.133817 -2.885307,1.979949 -4.467574,2.724543 -3.748362,1.768417 -7.725181,2.614546 -11.854301,2.699161 -2.521473,0.05077 -5.000637,-0.236918 -7.445958,-0.871516 -2.572238,-0.668443 -4.992173,-1.666879 -6.989044,-3.46914 -1.438383,-1.303041 -2.817576,-2.673774 -4.179849,-4.061429 -0.820748,-0.837672 -1.548419,-1.751494 -2.309938,-2.648392 -0.566908,-0.668443 -1.142278,-1.328427 -1.67534,-2.022254 -0.981514,-1.28612 -1.912257,-2.614546 -2.893771,-3.909127 -0.939204,-1.235351 -1.869949,-2.470705 -2.876845,-3.646827 -0.778441,-0.90536 -1.590728,-1.819182 -2.51301,-2.563779 -1.776877,-1.446884 -3.832978,-2.191479 -6.159837,-2.098404 -0.473835,0.01692 -0.947668,0.01692 -1.396118,0.01692 0.109997,-0.160765 0.279225,-0.296146 0.279225,-0.431527 -0.01692,-1.463808 0.533062,-2.724544 1.218429,-3.976818 0.380758,-0.693827 0.617676,-1.497653 0.795363,-2.276094 0.169226,-0.786901 -0.228455,-1.066127 -0.981513,-0.727673 -0.346915,0.152304 -0.64306,0.397682 -0.981513,0.566908 -0.896898,0.456911 -1.099971,0.423066 -1.523036,-0.338453 -0.08462,-0.160765 -0.169226,-0.32153 -0.262301,-0.482294 -0.58383,-0.989975 -2.301477,-1.455346 -3.282991,-0.846132 -0.617674,0.389221 -1.201505,0.837671 -1.759952,1.311503 -0.676905,0.575371 -1.421501,0.863055 -2.318401,0.736135 -0.287684,-0.04231 -0.58383,-0.03384 -0.871514,0.0085 -0.905362,0.143842 -1.074586,0.499217 -0.634598,1.294581 0.676903,1.218429 1.810721,1.971484 2.885308,2.775312 1.023819,0.769979 2.208402,1.218428 3.367603,1.709184 0.668442,0.287685 1.328424,0.600754 1.793798,1.209968 -0.101538,0.09309 -0.160765,0.18615 -0.253839,0.236917 -1.057664,0.643061 -1.963024,1.446885 -2.758389,2.403014 -1.057664,1.277657 -1.709184,2.733003 -2.039177,4.340653 -0.45691,2.216864 -0.211533,4.399885 0.397681,6.549058 0.930746,3.308373 2.504551,6.320602 4.492959,9.095913 1.514577,2.115329 3.054536,4.222195 4.729875,6.202142 1.379194,1.624573 2.952999,3.105302 4.509879,4.577575 1.074589,1.023818 2.208404,1.988402 3.40991,2.859916 1.692264,1.235352 3.418372,2.453776 5.21217,3.528363 4.002201,2.394553 8.30901,4.095263 12.844275,5.203703 2.623009,0.64305 5.279859,1.14229 7.987481,1.26073 2.335322,0.10157 4.679106,0.22 6.997506,0.10157 2.166097,-0.11 4.323731,-0.47386 6.472906,-0.80384 3.206838,-0.4823 6.261371,-1.50612 9.214374,-2.82608 2.546849,-1.13381 5.009098,-2.436843 7.259807,-4.095261 1.692258,-1.243815 3.401438,-2.46224 4.983708,-3.824517 1.36227,-1.167655 2.61455,-2.487623 3.84144,-3.807587 1.08305,-1.159198 2.0984,-2.39455 3.10529,-3.62144 1.28614,-1.582266 2.47073,-3.249146 3.48608,-5.026022 1.52302,-2.673774 2.84299,-5.440623 3.44374,-8.486697 0.43152,-2.208404 0.45691,-4.399884 -0.41459,-6.515213 -0.51614,-1.252272 -1.23536,-2.38609 -2.32688,-3.240683 -0.49921,-0.389222 -0.98996,-0.786902 -1.48918,-1.184585 0.13537,-0.09309 0.26231,-0.177686 0.38076,-0.262299 0.50769,-0.38922 1.04073,-0.685366 1.71764,-0.651522 0.67692,0.03385 1.36228,0.09308 2.03072,0.03385 0.53305,-0.05076 1.08306,-0.19461 1.57381,-0.406143 0.61767,-0.270762 0.7869,-0.854594 0.48229,-1.455347 z" id="path6" stroke-width="0.846132" fill-opacity="1" fill="#f4f8ff"/></g></svg>
