<?xml version="1.0" encoding="UTF-8" standalone="no"?>
<!-- Generator: Adobe Illustrator 28.3.0, SVG Export Plug-In . SVG Version: 6.00 Build 0)  -->

<svg
   version="1.1"
   id="Lager_1"
   x="0px"
   y="0px"
   viewBox="0 0 141.73 141.73"
   style="enable-background:new 0 0 141.73 141.73;"
   xml:space="preserve"
   sodipodi:docname="Cabanossy-Favicon.svg"
   inkscape:version="1.2.2 (b0a8486541, 2022-12-01)"
   xmlns:inkscape="http://www.inkscape.org/namespaces/inkscape"
   xmlns:sodipodi="http://sodipodi.sourceforge.net/DTD/sodipodi-0.dtd"
   xmlns="http://www.w3.org/2000/svg"
   xmlns:svg="http://www.w3.org/2000/svg"><defs
   id="defs33" /><sodipodi:namedview
   id="namedview31"
   pagecolor="#ffffff"
   bordercolor="#000000"
   borderopacity="0.25"
   inkscape:showpageshadow="2"
   inkscape:pageopacity="0.0"
   inkscape:pagecheckerboard="0"
   inkscape:deskcolor="#d1d1d1"
   showgrid="false"
   inkscape:zoom="3.2831598"
   inkscape:cx="55.129817"
   inkscape:cy="70.359049"
   inkscape:window-width="1920"
   inkscape:window-height="1011"
   inkscape:window-x="0"
   inkscape:window-y="0"
   inkscape:window-maximized="1"
   inkscape:current-layer="g28" />
<style
   type="text/css"
   id="style2">
	.st0{fill:#F9EF81;}
</style>
<g
   id="g28">
	<circle
   class="st0"
   cx="70.87"
   cy="70.87"
   r="70.51"
   id="circle4"
   style="fill:#1e3a8a;fill-opacity:1" />
	<path
   d="m 128.4352,55.770941 c -0.47,-0.92 -1.22,-1.42 -2.25,-1.58 -0.82,-0.12 -0.81,-0.21 -0.49,-0.98 0.47,-1.13 0.95,-2.26 1.33,-3.42 0.53,-1.62 -0.78,-3.16 -2.4,-2.79 -1.42,0.32 -2.67,0.03 -3.91,-0.62 -0.71,-0.37 -1.46,-0.71 -2.21,-0.97 -0.61,-0.22 -1.08,0.16 -1.09,0.82 0,0.43 0,0.88 0.09,1.3 0.54,2.44 1.12,4.87 1.18,7.39 0.02,0.97 0.06,1.95 0.09,2.99 -0.43,-0.16 -0.8,-0.23 -1.1,-0.42 -1.47,-0.96 -3.07,-0.99 -4.7,-0.66 -3.34,0.67 -5.94,2.64 -8.3,4.95 -1.24,1.22 -2.39,2.53 -3.5,3.88 -1.03,1.25 -1.990006,2.56 -2.890006,3.91 -1.2,1.8 -2.4,3.62 -3.91,5.17 -1.27,1.3 -2.67,2.47 -4.06,3.64 -1.59,1.34 -3.41,2.34 -5.28,3.22 -4.43,2.09 -9.13,3.09 -14.01,3.19 -2.98,0.06 -5.91,-0.28 -8.8,-1.03 -3.04,-0.79 -5.9,-1.97 -8.26,-4.1 -1.7,-1.54 -3.33,-3.16 -4.94,-4.8 -0.97,-0.99 -1.83,-2.07 -2.73,-3.13 -0.67,-0.79 -1.35,-1.57 -1.98,-2.39 -1.16,-1.52 -2.26,-3.09 -3.42,-4.62 -1.11,-1.46 -2.21,-2.92 -3.4,-4.31 -0.92,-1.07 -1.88,-2.15 -2.97,-3.03 -2.1,-1.71 -4.53,-2.59 -7.28,-2.48 -0.56,0.02 -1.12,0.02 -1.65,0.02 0.13,-0.19 0.33,-0.35 0.33,-0.51 -0.02,-1.73 0.63,-3.22 1.44,-4.7 0.45,-0.82 0.73,-1.77 0.94,-2.69 0.2,-0.93 -0.27,-1.26 -1.16,-0.86 -0.41,0.18 -0.76,0.47 -1.16,0.67 -1.06,0.54 -1.3,0.5 -1.8,-0.4 -0.1,-0.19 -0.2,-0.38 -0.31,-0.57 -0.69,-1.17 -2.72,-1.72 -3.88,-1 -0.73,0.46 -1.42,0.99 -2.08,1.55 -0.8,0.68 -1.68,1.02 -2.74,0.87 -0.34,-0.05 -0.69,-0.04 -1.03,0.01 -1.07,0.17 -1.27,0.59 -0.75,1.53 0.8,1.44 2.14,2.33 3.41,3.28 1.21,0.91 2.61,1.44 3.98,2.02 0.79,0.34 1.57,0.71 2.12,1.43 -0.12,0.11 -0.19,0.22 -0.3,0.28 -1.25,0.76 -2.32,1.71 -3.26,2.84 -1.25,1.51 -2.02,3.23 -2.41,5.13 -0.54,2.62 -0.25,5.2 0.47,7.74 1.1,3.91 2.96,7.47 5.31,10.75 1.79,2.5 3.61,4.99 5.59,7.33 1.63,1.92 3.49,3.67 5.33,5.41 1.27,1.21 2.61,2.35 4.03,3.379999 2,1.46 4.04,2.9 6.16,4.17 4.73,2.83 9.82,4.84 15.18,6.15 3.1,0.76 6.24,1.35 9.44,1.49 2.76,0.12 5.53,0.26 8.27,0.12 2.56,-0.13 5.11,-0.56 7.65,-0.95 3.79,-0.57 7.4,-1.78 10.89,-3.34 3.01,-1.34 5.920006,-2.88 8.580006,-4.84 2,-1.47 4.02,-2.91 5.89,-4.519999 1.61,-1.38 3.09,-2.94 4.54,-4.5 1.28,-1.37 2.48,-2.83 3.67,-4.28 1.52,-1.87 2.92,-3.84 4.12,-5.94 1.8,-3.16 3.36,-6.43 4.07,-10.03 0.51,-2.61 0.54,-5.2 -0.49,-7.7 -0.61,-1.48 -1.46,-2.82 -2.75,-3.83 -0.59,-0.46 -1.17,-0.93 -1.76,-1.4 0.16,-0.11 0.31,-0.21 0.45,-0.31 0.6,-0.46 1.23,-0.81 2.03,-0.77 0.8,0.04 1.61,0.11 2.4,0.04 0.63,-0.06 1.28,-0.23 1.86,-0.48 0.73,-0.32 0.93,-1.01 0.57,-1.72 z"
   id="path6"
   style="fill:#f4f8ff;fill-opacity:1" />
	
</g>
</svg>
