<svg xmlns="http://www.w3.org/2000/svg" id="Layer_13" data-name="Layer 13" viewBox="0 0 40.18 48.14"><defs><style>.cls-1{fill:#231f20;}</style></defs><path class="cls-1" d="M198.51,118.19a2.23,2.23,0,0,1-2.31-2.83,4.29,4.29,0,0,1,1.71-2.44c1.65-1.39,3.43-3,4-5.87.92-4.42-1.72-7.45-7.32-7.45-8.78,0-16.76,7.38-19.13,18.46-2.18,10.36,1.78,18.07,11.94,18.07,5.54,0,8.37-2.24,11.41-4.81a5.49,5.49,0,0,1,3.23-1.52,2.11,2.11,0,0,1,1.71.79,2.07,2.07,0,0,1,.6,1.91,6,6,0,0,1-1.52,2.44c-3.23,3.56-9.63,7.06-17.48,7.06-13.25,0-19.45-10.16-16.55-23.74,3-14.11,14.18-24.4,26.64-24.4,9,0,14.18,5.27,12.53,13.06a16.84,16.84,0,0,1-7.25,10.48A4.17,4.17,0,0,1,198.51,118.19Z" transform="translate(-168.13 -93.86)"/></svg>