<?xml version="1.0" standalone="no"?>
<!DOCTYPE svg PUBLIC "-//W3C//DTD SVG 20010904//EN"
 "http://www.w3.org/TR/2001/REC-SVG-20010904/DTD/svg10.dtd">
<svg version="1.0" xmlns="http://www.w3.org/2000/svg"
 width="700.000000pt" height="700.000000pt" viewBox="0 0 700.000000 700.000000"
 preserveAspectRatio="xMidYMid meet">
<metadata>
Created by potrace 1.14, written by Peter Selinger 2001-2017
</metadata>
<g transform="translate(0.000000,700.000000) scale(0.100000,-0.100000)"
fill="#000000" stroke="none">
<path d="M922 4929 c-13 -5 -49 -28 -80 -52 -84 -64 -113 -77 -181 -77 -75 0
-91 -6 -91 -36 0 -72 143 -193 332 -283 68 -32 129 -65 136 -73 10 -13 2 -23
-57 -67 -286 -212 -316 -574 -86 -1030 124 -247 410 -613 656 -841 444 -410
963 -665 1538 -755 150 -23 470 -35 635 -24 182 12 438 52 571 90 509 142 995
473 1389 944 305 366 475 728 476 1015 0 197 -67 335 -223 456 l-39 29 43 24
c35 20 57 24 143 26 158 2 211 38 172 114 -19 36 -54 61 -99 70 -42 9 -41 28
8 152 41 106 41 129 1 176 -23 27 -27 28 -122 28 -95 0 -102 2 -193 44 -108
50 -124 48 -129 -17 -2 -23 9 -99 24 -169 25 -123 46 -393 30 -393 -4 0 -30
12 -59 26 -100 51 -223 41 -372 -30 -95 -45 -172 -105 -290 -227 -120 -124
-184 -203 -295 -364 -121 -176 -173 -237 -292 -341 -130 -112 -194 -157 -314
-217 -382 -192 -861 -229 -1252 -98 -183 61 -258 111 -458 308 -163 159 -255
268 -466 548 -201 267 -283 362 -362 421 -109 82 -188 111 -332 121 l-90 6 8
60 c5 35 26 100 53 157 59 130 73 186 52 208 -15 14 -21 13 -77 -16 -80 -42
-93 -41 -122 11 -36 67 -122 102 -186 76z"/>
</g>
</svg>
