<?xml version="1.0" encoding="utf-8"?>
<!-- Generator: Adobe Illustrator 28.3.0, SVG Export Plug-In . SVG Version: 6.00 Build 0)  -->
<svg version="1.1" id="Lager_1" xmlns="http://www.w3.org/2000/svg" xmlns:xlink="http://www.w3.org/1999/xlink" x="0px" y="0px"
	 viewBox="0 0 141.73 141.73" style="enable-background:new 0 0 141.73 141.73;" xml:space="preserve">
<style type="text/css">
	.st0{fill:#F9EF81;}
</style>
<g>
	<circle class="st0" cx="70.87" cy="70.87" r="70.51"/>
	<path d="M126.76,74.66c-0.47-0.92-1.22-1.42-2.25-1.58c-0.82-0.12-0.81-0.21-0.49-0.98c0.47-1.13,0.95-2.26,1.33-3.42
		c0.53-1.62-0.78-3.16-2.4-2.79c-1.42,0.32-2.67,0.03-3.91-0.62c-0.71-0.37-1.46-0.71-2.21-0.97c-0.61-0.22-1.08,0.16-1.09,0.82
		c0,0.43,0,0.88,0.09,1.3c0.54,2.44,1.12,4.87,1.18,7.39c0.02,0.97,0.06,1.95,0.09,2.99c-0.43-0.16-0.8-0.23-1.1-0.42
		c-1.47-0.96-3.07-0.99-4.7-0.66c-3.34,0.67-5.94,2.64-8.3,4.95c-1.24,1.22-2.39,2.53-3.5,3.88c-1.03,1.25-1.99,2.56-2.89,3.91
		c-1.2,1.8-2.4,3.62-3.91,5.17c-1.27,1.3-2.67,2.47-4.06,3.64c-1.59,1.34-3.41,2.34-5.28,3.22c-4.43,2.09-9.13,3.09-14.01,3.19
		c-2.98,0.06-5.91-0.28-8.8-1.03c-3.04-0.79-5.9-1.97-8.26-4.1c-1.7-1.54-3.33-3.16-4.94-4.8c-0.97-0.99-1.83-2.07-2.73-3.13
		c-0.67-0.79-1.35-1.57-1.98-2.39c-1.16-1.52-2.26-3.09-3.42-4.62c-1.11-1.46-2.21-2.92-3.4-4.31c-0.92-1.07-1.88-2.15-2.97-3.03
		c-2.1-1.71-4.53-2.59-7.28-2.48c-0.56,0.02-1.12,0.02-1.65,0.02c0.13-0.19,0.33-0.35,0.33-0.51c-0.02-1.73,0.63-3.22,1.44-4.7
		c0.45-0.82,0.73-1.77,0.94-2.69c0.2-0.93-0.27-1.26-1.16-0.86c-0.41,0.18-0.76,0.47-1.16,0.67c-1.06,0.54-1.3,0.5-1.8-0.4
		c-0.1-0.19-0.2-0.38-0.31-0.57c-0.69-1.17-2.72-1.72-3.88-1c-0.73,0.46-1.42,0.99-2.08,1.55c-0.8,0.68-1.68,1.02-2.74,0.87
		c-0.34-0.05-0.69-0.04-1.03,0.01c-1.07,0.17-1.27,0.59-0.75,1.53c0.8,1.44,2.14,2.33,3.41,3.28c1.21,0.91,2.61,1.44,3.98,2.02
		c0.79,0.34,1.57,0.71,2.12,1.43c-0.12,0.11-0.19,0.22-0.3,0.28c-1.25,0.76-2.32,1.71-3.26,2.84c-1.25,1.51-2.02,3.23-2.41,5.13
		c-0.54,2.62-0.25,5.2,0.47,7.74c1.1,3.91,2.96,7.47,5.31,10.75c1.79,2.5,3.61,4.99,5.59,7.33c1.63,1.92,3.49,3.67,5.33,5.41
		c1.27,1.21,2.61,2.35,4.03,3.38c2,1.46,4.04,2.9,6.16,4.17c4.73,2.83,9.82,4.84,15.18,6.15c3.1,0.76,6.24,1.35,9.44,1.49
		c2.76,0.12,5.53,0.26,8.27,0.12c2.56-0.13,5.11-0.56,7.65-0.95c3.79-0.57,7.4-1.78,10.89-3.34c3.01-1.34,5.92-2.88,8.58-4.84
		c2-1.47,4.02-2.91,5.89-4.52c1.61-1.38,3.09-2.94,4.54-4.5c1.28-1.37,2.48-2.83,3.67-4.28c1.52-1.87,2.92-3.84,4.12-5.94
		c1.8-3.16,3.36-6.43,4.07-10.03c0.51-2.61,0.54-5.2-0.49-7.7c-0.61-1.48-1.46-2.82-2.75-3.83c-0.59-0.46-1.17-0.93-1.76-1.4
		c0.16-0.11,0.31-0.21,0.45-0.31c0.6-0.46,1.23-0.81,2.03-0.77c0.8,0.04,1.61,0.11,2.4,0.04c0.63-0.06,1.28-0.23,1.86-0.48
		C126.92,76.06,127.12,75.37,126.76,74.66z"/>
	<g>
		<path d="M19.27,54.58c-0.17-0.05-0.31-0.11-0.46-0.2c-0.19-0.09-0.38-0.22-0.58-0.34c-3.17-1.73-4.78-5.88-3.17-9.54
			c1.01-2.26,2.72-3.73,5.15-4.36c0.63-0.17,0.68-0.14,0.79,0.52c0.1,0.63,0.21,1.3,0.3,1.95c0.06,0.43,0.03,0.48-0.37,0.61
			c-0.09,0.04-0.16,0.04-0.25,0.08c-2.3,0.72-3.58,3.15-2.92,5.46c0.68,2.3,3.04,3.63,5.34,3.05c2.33-0.59,3.78-2.95,3.22-5.29
			c-0.16-0.69-0.13-0.7,0.49-0.94l1.64-0.65c0.14-0.05,0.28-0.1,0.41-0.14c0.12-0.02,0.21,0.03,0.26,0.13
			c0.05,0.1,0.12,0.22,0.14,0.33c0.85,3.04,0.15,5.72-2.13,7.84C24.87,55.18,22.17,55.62,19.27,54.58z"/>
		<path d="M38.57,37.97c-0.62-0.34-1.24-0.65-1.86-0.96c-0.69-0.35-0.69-0.35-1.21,0.15l-2.78,2.68c-0.46,0.44-0.46,0.44-0.2,0.99
			c0.26,0.6,0.55,1.21,0.82,1.8c0.07,0.12,0.12,0.26,0.18,0.38c0.06,0.18,0.03,0.31-0.08,0.45l-0.44,0.43
			c-0.4,0.41-0.82,0.81-1.25,1.2c-0.3,0.29-0.41,0.26-0.61-0.13c-0.33-0.67-0.63-1.34-0.94-2c-1.67-3.59-3.36-7.18-5.03-10.77
			c-0.31-0.69-0.31-0.69,0.23-1.21l0.79-0.76l1.01-0.97c0.22-0.24,0.44-0.24,0.71-0.1c0.97,0.51,1.94,0.99,2.9,1.48
			c3.2,1.64,6.4,3.29,9.6,4.93c0.17,0.1,0.35,0.2,0.51,0.31c0.12,0.07,0.13,0.22,0.06,0.31c-0.06,0.08-0.11,0.13-0.17,0.19
			c-0.51,0.49-1.02,0.99-1.54,1.51C39.06,38.09,38.84,38.11,38.57,37.97z M32.6,35.84c0.14-0.13,0.26-0.25,0.39-0.4
			c0.11-0.13,0.09-0.27-0.06-0.37c-0.07-0.04-0.13-0.08-0.22-0.11c-1.04-0.55-2.09-1.09-3.15-1.64c-0.11-0.06-0.22-0.09-0.34-0.13
			c-0.11-0.03-0.19,0.08-0.17,0.19c0.04,0.12,0.08,0.22,0.13,0.33c0.26,0.58,0.52,1.15,0.81,1.73l0.74,1.6
			c0.13,0.25,0.28,0.29,0.49,0.09c0.29-0.25,0.55-0.53,0.83-0.8l0.01,0.01L32.6,35.84z"/>
		<path d="M42.82,34.89c-0.37,0.17-0.45,0.13-0.67-0.23c-0.1-0.14-0.15-0.29-0.23-0.44l-2.95-5.58c-1-1.89-1.99-3.76-2.97-5.63
			c-0.42-0.8-0.42-0.8,0.33-1.19l4.88-2.58c1.5-0.77,3.32-0.58,4.6,0.51c0.94,0.83,1.5,1.88,1.58,3.15
			c0.06,0.77-0.01,0.68,0.68,0.97c2.44,1.04,3.89,4.69,1.48,7.24c-0.35,0.33-0.72,0.62-1.13,0.83l-5.42,2.87L42.82,34.89z
			 M43.76,24.26c0.38-0.22,0.61-0.58,0.65-1.04c0.04-1-0.87-1.69-1.81-1.37c-0.16,0.06-0.3,0.14-0.45,0.22l-1.94,1.02
			c-0.12,0.06-0.22,0.12-0.32,0.17c-0.22,0.16-0.29,0.28-0.16,0.52c0.28,0.57,0.58,1.13,0.89,1.68c0.14,0.27,0.27,0.3,0.55,0.17
			c0.45-0.22,0.87-0.46,1.29-0.68C42.9,24.72,43.33,24.51,43.76,24.26z M46.92,29.36c0.89-0.49,1.11-1.31,0.6-2.16
			c-0.35-0.58-0.96-0.84-1.63-0.66c-0.2,0.06-0.41,0.17-0.61,0.25l-2.45,1.29c-0.1,0.05-0.2,0.11-0.31,0.19
			c-0.23,0.14-0.27,0.27-0.14,0.51c0.32,0.65,0.67,1.3,1.02,1.94c0.16,0.31,0.29,0.35,0.6,0.18c0.54-0.26,1.05-0.56,1.56-0.83
			C46.01,29.83,46.47,29.62,46.92,29.36z"/>
		<path d="M62.7,26.72c-0.35-0.61-0.72-1.2-1.09-1.78c-0.4-0.66-0.4-0.66-1.12-0.5l-3.77,0.85c-0.62,0.14-0.62,0.14-0.68,0.75
			c-0.09,0.65-0.16,1.32-0.23,1.96c-0.01,0.14-0.03,0.28-0.04,0.42c-0.04,0.19-0.13,0.29-0.3,0.34l-0.6,0.14
			c-0.56,0.15-1.12,0.27-1.69,0.38c-0.41,0.09-0.49,0.01-0.45-0.43c0.07-0.74,0.16-1.48,0.23-2.2c0.43-3.94,0.84-7.88,1.27-11.82
			c0.09-0.75,0.09-0.75,0.82-0.91l1.07-0.24l1.37-0.31c0.31-0.09,0.5,0.02,0.66,0.29c0.57,0.94,1.15,1.85,1.71,2.77
			c1.89,3.06,3.77,6.13,5.66,9.19c0.1,0.17,0.2,0.35,0.28,0.53c0.07,0.12,0,0.26-0.11,0.3c-0.09,0.04-0.16,0.06-0.24,0.07
			c-0.69,0.16-1.39,0.31-2.1,0.49C63.06,27.07,62.86,26.98,62.7,26.72z M58.69,21.81c0.19-0.04,0.36-0.08,0.54-0.14
			c0.16-0.06,0.21-0.19,0.14-0.35c-0.04-0.07-0.07-0.14-0.13-0.21c-0.6-1.01-1.22-2.01-1.85-3.03c-0.06-0.1-0.14-0.19-0.22-0.28
			c-0.08-0.08-0.2-0.03-0.24,0.07c-0.03,0.13-0.05,0.23-0.06,0.35c-0.07,0.63-0.15,1.26-0.2,1.9l-0.19,1.76
			c-0.02,0.28,0.09,0.39,0.37,0.33c0.38-0.07,0.75-0.17,1.13-0.25l0,0.02L58.69,21.81z"/>
		<path d="M77.34,26.51c-0.07-0.14-0.15-0.24-0.22-0.36c-1.82-2.91-3.65-5.82-5.49-8.71c-0.1-0.18-0.18-0.42-0.42-0.5
			c-0.26,0.15-0.17,0.43-0.19,0.66c-0.24,2.62-0.43,5.25-0.65,7.87c-0.07,0.82-0.09,0.82-0.93,0.75c-0.56-0.03-1.09-0.07-1.65-0.14
			c-0.33-0.03-0.39-0.13-0.39-0.44c-0.01-0.15,0.03-0.33,0.04-0.48l1.05-12.76c0.02-0.21,0.03-0.4,0.07-0.61
			c0.01-0.13,0.11-0.2,0.25-0.23c0.1-0.01,0.19,0,0.31,0.01c0.67,0.06,1.34,0.13,2.01,0.17c0.35,0.01,0.57,0.14,0.73,0.45
			c0.08,0.16,0.19,0.32,0.29,0.47l5.61,8.91c0.1,0.18,0.22,0.35,0.34,0.51c0.05,0.06,0.19,0.03,0.22-0.04
			c0.04-0.21,0.07-0.4,0.09-0.61l0.66-8.05c0.02-0.19,0.03-0.36,0.05-0.56c0.04-0.3,0.13-0.39,0.44-0.39
			c0.73,0.06,1.48,0.12,2.2,0.2c0.23,0.02,0.32,0.12,0.32,0.35l-0.05,0.56c-0.17,2.11-0.35,4.23-0.52,6.34l-0.53,6.42
			c-0.02,0.21-0.03,0.4-0.07,0.61c-0.03,0.13-0.13,0.2-0.27,0.21c-0.1,0.01-0.19,0-0.29,0c-0.77-0.06-1.51-0.12-2.26-0.17
			C77.75,26.93,77.51,26.82,77.34,26.51z"/>
		<path d="M85.07,20.48c1.63-3.9,6.22-5.69,9.96-4.02c3.62,1.45,5.73,5.84,4.02,9.92c-1.61,3.85-6.04,5.66-9.91,4.04
			C85.05,28.7,83.53,24.1,85.07,20.48z M96.13,25.17c0.96-2.24-0.09-4.87-2.33-5.83c-2.23-0.95-4.88,0.1-5.84,2.35
			c-0.95,2.21,0.11,4.82,2.33,5.79C92.52,28.47,95.17,27.41,96.13,25.17z"/>
		<path d="M98.55,31.63l0.13-0.36c0.14-0.31,0.27-0.35,0.59-0.2c0.61,0.31,1.23,0.64,1.84,0.95c0.29,0.16,0.33,0.23,0.25,0.56
			c-0.06,0.2-0.11,0.42-0.1,0.66c0,1.34,1.35,2.2,2.53,1.66c0.65-0.33,0.95-0.94,0.79-1.63c-0.08-0.31-0.2-0.62-0.33-0.92
			l-0.81-1.66c-0.25-0.49-0.44-1-0.58-1.53c-0.56-2.15,0.52-3.84,2.07-4.65c1.8-0.93,3.51-0.65,5.09,0.49
			c1.48,1.23,2.03,2.74,1.64,4.55c-0.11,0.57-0.21,0.62-0.76,0.43c-0.59-0.22-1.18-0.43-1.77-0.67c-0.36-0.13-0.36-0.16-0.34-0.53
			c0-0.19,0.02-0.37-0.03-0.56c-0.23-1.08-1.71-1.63-2.6-0.98c-0.39,0.28-0.55,0.64-0.44,1.12c0.07,0.32,0.2,0.62,0.33,0.92
			c0.31,0.63,0.64,1.28,0.93,1.93c0.26,0.57,0.5,1.17,0.56,1.81c0.22,1.9-0.49,3.37-2.11,4.35c-3.05,1.84-6.55-0.24-7.1-3.28
			C98.21,33.25,98.26,32.43,98.55,31.63z"/>
		<path d="M107.67,38.89l0.21-0.32c0.2-0.27,0.34-0.28,0.62-0.06c0.53,0.44,1.06,0.9,1.59,1.34c0.25,0.22,0.27,0.3,0.12,0.6
			c-0.1,0.18-0.2,0.39-0.24,0.62c-0.3,1.31,0.83,2.45,2.1,2.18c0.7-0.17,1.14-0.7,1.13-1.41c-0.01-0.32-0.06-0.65-0.12-0.97
			l-0.42-1.79c-0.14-0.53-0.2-1.07-0.23-1.62c-0.07-2.22,1.36-3.63,3.06-4.07c1.97-0.51,3.57,0.15,4.85,1.6
			c1.17,1.53,1.37,3.12,0.59,4.8c-0.23,0.54-0.34,0.55-0.83,0.26c-0.53-0.34-1.05-0.68-1.57-1.05c-0.32-0.21-0.32-0.24-0.21-0.6
			c0.05-0.19,0.11-0.36,0.1-0.55c0.02-1.11-1.3-1.96-2.32-1.54c-0.44,0.19-0.68,0.5-0.68,1c-0.01,0.33,0.06,0.65,0.12,0.97
			c0.16,0.69,0.34,1.39,0.48,2.09c0.13,0.61,0.23,1.25,0.15,1.89c-0.21,1.91-1.23,3.18-3.03,3.78c-3.38,1.12-6.33-1.69-6.19-4.78
			C106.98,40.39,107.21,39.61,107.67,38.89z"/>
		<path d="M114.87,52.18c0.65-0.33,1.32-0.63,1.99-0.96l-0.01-0.02c0.62-0.3,1.25-0.6,1.88-0.88c0.41-0.17,0.7-0.46,0.97-0.83
			l4.93-6.77c0.13-0.17,0.27-0.37,0.4-0.54c0.18-0.21,0.33-0.2,0.48,0.07l0.08,0.16c0.32,0.66,0.62,1.34,0.96,1.99
			c0.18,0.34,0.14,0.6-0.08,0.89c-0.95,1.27-1.85,2.54-2.78,3.79c-0.11,0.16-0.22,0.3-0.31,0.47c-0.07,0.12-0.01,0.24,0.13,0.26
			c0.19,0.04,0.36,0.04,0.56,0.05l4.41,0.2c0.13,0,0.28,0.01,0.41,0.01c0.28,0,0.46,0.12,0.58,0.36l1.07,2.22
			c0.03,0.07,0.05,0.15,0.07,0.22c0.03,0.11-0.02,0.22-0.14,0.24c-0.21,0.01-0.4,0-0.6-0.01c-2.77-0.12-5.52-0.24-8.27-0.37
			l-0.48-0.02c-0.33-0.03-0.64,0.05-0.95,0.2l-3.86,1.86c-0.16,0.08-0.33,0.16-0.49,0.22c-0.16,0.06-0.29,0.01-0.39-0.13l-0.13-0.28
			c-0.25-0.48-0.49-0.98-0.72-1.49C114.28,52.51,114.28,52.47,114.87,52.18z"/>
	</g>
</g>
</svg>
