<?xml version="1.0" encoding="utf-8"?>
<!-- Generator: Adobe Illustrator 28.3.0, SVG Export Plug-In . SVG Version: 6.00 Build 0)  -->
<svg version="1.1" id="Lager_1" xmlns="http://www.w3.org/2000/svg" xmlns:xlink="http://www.w3.org/1999/xlink" x="0px" y="0px"
	 viewBox="0 0 141.73 141.73" style="enable-background:new 0 0 141.73 141.73;" xml:space="preserve">
<style type="text/css">
	.st0{fill:#020203;}
	.st1{fill:#FFFFFF;}
</style>
<g>
	<g>
		<g>
			<path class="st0" d="M141.38,71.06c0,26.05-14.12,48.79-35.13,61c-10.4,6.05-22.49,9.51-35.38,9.51
				c-31.56,0-58.28-20.74-67.27-49.33c-2.1-6.68-3.24-13.8-3.24-21.18c0-38.94,31.57-70.51,70.51-70.51
				C109.81,0.55,141.38,32.12,141.38,71.06z"/>
		</g>
	</g>
	<path class="st1" d="M26.14,96.73c0,0.77,0.16,1.52,0.45,2.2c0.43,1.01,1.14,1.87,2.04,2.47c0.89,0.61,1.99,0.97,3.15,0.97h78.17
		c0.77,0,1.52-0.16,2.2-0.45c1.01-0.43,1.87-1.14,2.47-2.04c0.61-0.89,0.97-1.99,0.97-3.15V45.39c0-0.77-0.16-1.52-0.45-2.2
		c-0.43-1.01-1.14-1.87-2.04-2.47c-0.07-0.05-0.14-0.09-0.21-0.13c0,0,0,0,0,0c-0.85-0.52-1.87-0.83-2.94-0.83H31.78
		c-0.77,0-1.52,0.16-2.2,0.45c-1.01,0.43-1.87,1.14-2.47,2.04c-0.61,0.89-0.97,1.99-0.97,3.15V96.73z M110.22,96.73
		c0,0.04-0.01,0.07-0.02,0.1c-0.02,0.05-0.06,0.1-0.11,0.13c-0.05,0.03-0.09,0.04-0.15,0.05H31.78c-0.04,0-0.07-0.01-0.1-0.02
		c-0.05-0.02-0.1-0.06-0.13-0.11c-0.03-0.05-0.04-0.09-0.05-0.15V46.98l37.82,26.29c0.92,0.64,2.14,0.64,3.06,0l37.82-26.29V96.73z
		 M103.49,45.12L70.87,67.79L38.24,45.12H103.49z"/>
</g>
</svg>
