<?xml version="1.0" encoding="utf-8"?>
<!-- Generator: Adobe Illustrator 28.3.0, SVG Export Plug-In . SVG Version: 6.00 Build 0)  -->
<svg version="1.1" id="Lager_1" xmlns="http://www.w3.org/2000/svg" xmlns:xlink="http://www.w3.org/1999/xlink" x="0px" y="0px"
	 viewBox="0 0 90.44 13" style="enable-background:new 0 0 90.44 13;" xml:space="preserve">
<g>
	<path d="M1.31,6.69c-0.22-2.51,1.5-4.71,3.98-5.07C6.81,1.4,8.16,1.84,9.28,2.92C9.38,3,9.46,3.1,9.55,3.19
		C9.62,3.3,9.61,3.37,9.51,3.47L9.37,3.59C9.06,3.84,8.76,4.08,8.44,4.33C8.16,4.55,8.16,4.55,7.91,4.32
		c-0.05-0.05-0.1-0.1-0.14-0.13c-0.88-0.7-1.83-0.86-2.87-0.41C3.86,4.23,3.31,5.07,3.25,6.2C3.18,7.68,4.43,8.97,5.91,9
		c0.66,0.01,1.25-0.18,1.77-0.59c0.17-0.12,0.26-0.28,0.24-0.48c-0.01-0.1,0-0.18,0-0.28c-0.01-0.36-0.04-0.4-0.38-0.4
		c-0.22-0.01-0.43,0-0.65,0c-0.1,0-0.18-0.01-0.28-0.02C6.54,7.22,6.49,7.17,6.48,7.09C6.47,7.05,6.47,7.02,6.47,6.97
		c0-0.47-0.01-0.93,0-1.4c0-0.22,0.06-0.26,0.28-0.28c0.13-0.01,0.25,0,0.38,0h2.13c0.1,0,0.18-0.01,0.28,0
		c0.3,0,0.34,0.04,0.35,0.36v1.52c0,0.5-0.01,1,0,1.49c0,0.19-0.06,0.35-0.18,0.49c-1.15,1.51-3.17,2.17-5.04,1.63
		C2.82,10.24,1.46,8.6,1.31,6.69z"/>
	<path d="M11.3,10.78c-0.13,0-0.25,0-0.38-0.01c-0.08-0.01-0.13-0.07-0.14-0.16c-0.01-0.12-0.01-0.25-0.01-0.37
		c-0.01-1.34,0-2.67,0-4.02c0-1.34-0.01-2.67,0-4.02c0-0.52,0-0.52,0.53-0.52h4.79c0.52,0,0.52,0,0.52,0.5v1.07
		c-0.01,0.19-0.07,0.24-0.26,0.25c-0.1,0.01-0.2,0.01-0.3,0.01h-2.95c-0.48,0-0.48,0-0.48,0.49v0.73c0,0.52,0,0.52,0.54,0.52h1.83
		c0.08,0,0.18,0,0.26,0c0.05,0,0.11,0,0.16,0.01c0.08,0.02,0.13,0.07,0.14,0.16c0.01,0.05,0.01,0.1,0.01,0.16
		c0.01,0.41,0.01,0.82,0,1.22c0,0.25-0.05,0.3-0.32,0.3c-0.67,0.01-1.34,0-2.03,0c-0.11,0-0.23,0-0.34,0.01
		c-0.19,0.01-0.26,0.06-0.26,0.25v1.31c0.01,0.18,0.07,0.24,0.26,0.25h0.31c0.97,0,1.95,0,2.94,0c0.47,0,0.48,0.01,0.48,0.47v1.1
		c-0.01,0.22-0.06,0.26-0.28,0.28c-0.1,0.01-0.18,0-0.28,0C14.47,10.78,12.89,10.8,11.3,10.78z"/>
	<path d="M20.3,10.78c-0.2,0-0.25-0.06-0.26-0.25c-0.01-0.12,0-0.25,0-0.38V4.08c0-0.13-0.01-0.26-0.02-0.38
		c0-0.08-0.06-0.14-0.14-0.16c-0.11-0.01-0.2-0.01-0.31-0.01h-1.6c-0.37-0.01-0.4-0.04-0.4-0.4c-0.01-0.38-0.01-0.77,0-1.15
		c0-0.24,0.06-0.28,0.3-0.29h0.23c1.92,0,3.83,0,5.73,0c0.52,0,0.53,0,0.53,0.54c0,0.32,0,0.66-0.01,0.98c0,0.25-0.05,0.3-0.29,0.3
		c-0.38,0.01-0.77,0.01-1.15,0.01c-0.25,0-0.5-0.01-0.76,0c-0.22,0.01-0.26,0.06-0.28,0.28c-0.01,0.13,0,0.26,0,0.38v2.99
		c0,1.04,0,2.09-0.01,3.13c0,0.48,0,0.48-0.49,0.48C21.01,10.8,20.66,10.8,20.3,10.78z"/>
	<path d="M29.68,10.78c-0.22,0-0.26-0.06-0.28-0.28v-0.3c0-2.65,0-5.3,0-7.95c0-0.58-0.02-0.56,0.56-0.56h1
		c0.22,0.01,0.26,0.06,0.28,0.28v0.35c0,1.31,0,2.62,0,3.93v4.04c0,0.49,0,0.49-0.49,0.49C30.4,10.8,30.04,10.8,29.68,10.78z"/>
	<path d="M38.79,10.56c-0.05-0.08-0.11-0.14-0.16-0.22c-1.28-1.71-2.57-3.43-3.86-5.13c-0.07-0.11-0.13-0.25-0.29-0.29
		c-0.16,0.11-0.08,0.28-0.08,0.42c-0.01,1.64,0,3.29,0,4.93c0,0.52-0.01,0.52-0.54,0.52c-0.35,0.01-0.68,0.01-1.03,0
		c-0.2,0-0.25-0.06-0.26-0.25c-0.01-0.1,0-0.2,0-0.3V2.24c0-0.13,0-0.25,0.01-0.38c0-0.08,0.06-0.13,0.14-0.16
		c0.06-0.01,0.12-0.01,0.19-0.01c0.42,0,0.84,0.01,1.26,0c0.22-0.01,0.36,0.06,0.48,0.24c0.06,0.1,0.13,0.19,0.2,0.28l3.95,5.25
		c0.07,0.11,0.16,0.2,0.24,0.3c0.04,0.04,0.12,0.01,0.13-0.04c0.01-0.13,0.02-0.25,0.02-0.38V2.3c0-0.12,0-0.23,0-0.35
		c0.01-0.19,0.06-0.25,0.25-0.26c0.46,0,0.92,0,1.38,0.01c0.14,0,0.2,0.06,0.22,0.2v0.35c0,1.32,0,2.65,0,3.97v4.02
		c0,0.13,0,0.25-0.01,0.38c-0.01,0.08-0.07,0.13-0.16,0.14c-0.06,0.01-0.12,0.01-0.18,0.01c-0.48,0-0.95,0-1.42,0.01
		C39.07,10.8,38.91,10.74,38.79,10.56z"/>
	<path d="M48.39,10.78c-0.2,0-0.25-0.06-0.26-0.25c-0.01-0.12,0-0.25,0-0.38V4.08c0-0.13-0.01-0.26-0.02-0.38
		c0-0.08-0.06-0.14-0.14-0.16c-0.11-0.01-0.2-0.01-0.31-0.01h-1.6c-0.37-0.01-0.4-0.04-0.4-0.4c-0.01-0.38-0.01-0.77,0-1.15
		c0-0.24,0.06-0.28,0.3-0.29h0.23c1.92,0,3.83,0,5.73,0c0.52,0,0.53,0,0.53,0.54c0,0.32,0,0.66-0.01,0.98c0,0.25-0.05,0.3-0.29,0.3
		C51.76,3.53,51.38,3.53,51,3.53c-0.25,0-0.5-0.01-0.76,0c-0.22,0.01-0.26,0.06-0.28,0.28c-0.01,0.13,0,0.26,0,0.38v2.99
		c0,1.04,0,2.09-0.01,3.13c0,0.48,0,0.48-0.49,0.48C49.1,10.8,48.75,10.8,48.39,10.78z"/>
	<path d="M52.58,6.26c0-2.64,2.21-4.77,4.76-4.71c2.43-0.04,4.7,1.98,4.7,4.74c0,2.6-2.11,4.71-4.73,4.71
		C54.55,11,52.57,8.72,52.58,6.26z M60.08,6.3c0.01-1.52-1.22-2.78-2.75-2.79c-1.51-0.01-2.78,1.24-2.79,2.76
		c-0.01,1.5,1.22,2.75,2.73,2.77C58.8,9.07,60.07,7.82,60.08,6.3z"/>
	<path d="M62.69,7.53c-0.01-0.12,0-0.23,0-0.35c0-1.67-0.01-3.33,0-5c0-0.49,0-0.49,0.48-0.49h1.08c0.22,0.01,0.25,0.06,0.26,0.28
		c0.01,0.12,0.01,0.24,0.01,0.35c0,1.52-0.01,3.03,0,4.55c0,0.2,0,0.42,0.04,0.61c0.17,1.01,1.07,1.74,2.06,1.67
		c1.04-0.07,1.86-0.9,1.87-1.95c0.01-1.63,0-3.26,0-4.89c0-0.13,0-0.25,0.01-0.38c0.01-0.14,0.07-0.19,0.22-0.22h0.11
		c0.4,0,0.79,0,1.19,0c0.29,0,0.32,0.05,0.34,0.34v0.35c0,0.79,0,1.58,0,2.37c0,0.82,0.01,1.63,0,2.45c-0.04,1.46-0.7,2.6-1.98,3.31
		C65.94,11.86,62.98,10.28,62.69,7.53z"/>
	<path d="M71.27,6.98c-0.02-0.11-0.04-0.2-0.04-0.31c-0.01-0.13,0-0.28,0-0.42C71.18,4,72.92,1.84,75.41,1.57
		c1.54-0.16,2.87,0.31,3.96,1.43c0.29,0.29,0.29,0.32-0.04,0.59c-0.31,0.25-0.64,0.52-0.96,0.77c-0.22,0.17-0.25,0.17-0.44-0.01
		c-0.05-0.04-0.07-0.07-0.12-0.11c-1.1-1.02-2.82-0.96-3.86,0.12c-1.03,1.08-1.02,2.77,0.01,3.84c1.04,1.08,2.77,1.13,3.86,0.1
		c0.32-0.3,0.34-0.29,0.66-0.02l0.86,0.68c0.07,0.06,0.14,0.12,0.2,0.18c0.05,0.06,0.05,0.12,0.01,0.18
		c-0.04,0.06-0.08,0.13-0.13,0.18c-1.38,1.4-3.05,1.86-4.91,1.28C72.68,10.2,71.6,8.88,71.27,6.98z"/>
	<path d="M86,10.78c-0.22,0-0.28-0.06-0.29-0.26v-0.31c0-0.88,0-1.75,0-2.63c0-0.44-0.01-0.46-0.44-0.47h-2.45
		c-0.07,0-0.16,0-0.23,0.01c-0.16,0.01-0.22,0.07-0.22,0.22c-0.01,0.11-0.01,0.23-0.01,0.34v2.64c0,0.47-0.01,0.47-0.47,0.47
		c-0.36,0.01-0.72,0.01-1.08,0c-0.23,0-0.28-0.05-0.29-0.3v-0.23c0-2.67,0-5.35,0-8.02V1.92c0.02-0.17,0.07-0.22,0.25-0.23h1.33
		c0.19,0.01,0.24,0.07,0.25,0.28v0.46c0,0.8,0,1.61,0,2.4c0,0.42,0.02,0.44,0.42,0.44h2.53c0.36,0,0.4-0.04,0.4-0.38V2.2
		c0-0.11,0-0.23,0.01-0.34c0.01-0.08,0.07-0.13,0.16-0.16c0.04-0.01,0.07-0.01,0.11-0.01h1.3c0.23,0.01,0.26,0.06,0.28,0.28
		c0.01,0.12,0.01,0.24,0.01,0.35v3.93c0,1.34,0,2.67,0,4.02c-0.01,0.52-0.01,0.52-0.54,0.52C86.68,10.8,86.35,10.8,86,10.78z"/>
</g>
</svg>
