<?xml version="1.0" encoding="utf-8"?>
<!-- Generator: Adobe Illustrator 28.3.0, SVG Export Plug-In . SVG Version: 6.00 Build 0)  -->
<svg version="1.1" id="Lager_1" xmlns="http://www.w3.org/2000/svg" xmlns:xlink="http://www.w3.org/1999/xlink" x="0px" y="0px"
	 viewBox="0 0 90.44 13" style="enable-background:new 0 0 90.44 13;" xml:space="preserve">
<g>
	<path d="M1.31,6.69c-0.22-2.51,1.5-4.71,3.98-5.07C6.81,1.4,8.16,1.83,9.28,2.91C9.38,3,9.46,3.09,9.55,3.19
		C9.62,3.3,9.61,3.37,9.51,3.46L9.37,3.58C9.06,3.84,8.76,4.08,8.44,4.33C8.16,4.54,8.16,4.54,7.91,4.31
		c-0.05-0.05-0.1-0.1-0.14-0.13c-0.88-0.7-1.83-0.86-2.87-0.41C3.86,4.23,3.31,5.07,3.25,6.2C3.18,7.67,4.43,8.97,5.91,8.99
		C6.57,9,7.16,8.81,7.69,8.4c0.17-0.12,0.26-0.28,0.24-0.48c-0.01-0.1,0-0.18,0-0.28c-0.01-0.36-0.04-0.4-0.38-0.4
		c-0.22-0.01-0.43,0-0.65,0c-0.1,0-0.18-0.01-0.28-0.02C6.54,7.22,6.49,7.17,6.48,7.09C6.47,7.05,6.47,7.01,6.47,6.97
		c0-0.47-0.01-0.94,0-1.4c0-0.22,0.06-0.26,0.28-0.28c0.13-0.01,0.25,0,0.38,0h2.13c0.1,0,0.18-0.01,0.28,0
		c0.3,0,0.34,0.04,0.35,0.36v1.52c0,0.5-0.01,1,0,1.49C9.88,8.85,9.82,9,9.7,9.15c-1.15,1.51-3.17,2.17-5.04,1.63
		C2.82,10.24,1.46,8.6,1.31,6.69z"/>
	<path d="M15.9,10.78c-0.42,0-0.42-0.01-0.59-0.41l-0.97-2.45c-0.19-0.48-0.18-0.46-0.66-0.46H13.1c-0.36,0.01-0.38,0.04-0.38,0.41
		c-0.01,0.08,0,0.18,0,0.26v2.18c-0.01,0.43-0.02,0.44-0.46,0.46c-0.36,0-0.73,0-1.1-0.01c-0.22,0-0.26-0.05-0.28-0.28
		c-0.01-0.11,0-0.23,0-0.34V6.21c0-1.34-0.01-2.7,0-4.04c0-0.49,0-0.49,0.49-0.49c1.02,0,2.04,0.01,3.06,0
		c1.4-0.04,2.81,1.12,2.83,2.81c0.01,0.95-0.31,1.74-1.06,2.35l-0.11,0.1c-0.07,0.07-0.1,0.16-0.06,0.25l0.11,0.29
		c0.38,0.95,0.77,1.91,1.16,2.87c0.17,0.4,0.13,0.44-0.31,0.44C16.63,10.77,16.27,10.78,15.9,10.78z M14.47,5.61
		c0.56-0.04,0.92-0.44,0.94-1.01V4.41c-0.06-0.42-0.29-0.7-0.68-0.84c-0.13-0.05-0.28-0.06-0.41-0.06H13.7h-0.73
		c-0.19,0.01-0.25,0.07-0.25,0.25v1.61c0,0.17,0.06,0.24,0.23,0.24C13.45,5.62,13.97,5.63,14.47,5.61z"/>
	<path d="M17.76,6.26c0-2.64,2.21-4.77,4.76-4.71c2.43-0.04,4.7,1.98,4.7,4.74c0,2.6-2.11,4.71-4.73,4.71
		C19.73,11,17.75,8.72,17.76,6.26z M25.26,6.29c0.01-1.52-1.22-2.78-2.75-2.79C21,3.49,19.73,4.73,19.72,6.26
		C19.7,7.76,20.94,9,22.45,9.03C23.97,9.06,25.24,7.82,25.26,6.29z"/>
	<path d="M34.47,10.78c-0.19,0-0.24-0.05-0.3-0.23c-0.08-0.31-0.16-0.62-0.23-0.94c-0.26-1.12-0.54-2.22-0.8-3.33
		c-0.04-0.12-0.04-0.23-0.11-0.32C33.02,5.93,33,5.92,32.97,5.92s-0.06,0.01-0.06,0.04c-0.05,0.12-0.08,0.24-0.12,0.36
		c-0.25,1.07-0.52,2.12-0.77,3.19c-0.08,0.34-0.16,0.67-0.25,1.01c-0.06,0.23-0.1,0.26-0.35,0.26c-0.55,0.01-1.12,0.01-1.68,0
		c-0.28,0-0.31-0.04-0.38-0.32l-0.43-1.74c-0.53-2.15-1.06-4.31-1.6-6.45c-0.14-0.58-0.14-0.59,0.44-0.58h0.84c0.07,0,0.14,0,0.23,0
		c0.28,0.01,0.3,0.02,0.37,0.28c0.04,0.13,0.06,0.25,0.1,0.37c0.36,1.51,0.73,3.02,1.1,4.53c0.02,0.14,0,0.31,0.18,0.38
		c0.13-0.1,0.12-0.24,0.16-0.37c0.38-1.57,0.76-3.14,1.14-4.71C32,1.69,32,1.69,32.51,1.69h1.07c0.35,0,0.36,0.01,0.44,0.34
		l0.5,2.09c0.23,0.94,0.46,1.88,0.68,2.82c0.02,0.1,0.06,0.19,0.1,0.29c0.01,0.02,0.04,0.04,0.06,0.04s0.06-0.01,0.06-0.04
		C35.46,7.11,35.5,7,35.53,6.89c0.38-1.57,0.77-3.14,1.14-4.71c0.12-0.52,0.13-0.49,0.64-0.49h0.92c0.08,0,0.18,0,0.26,0.01
		c0.08,0.02,0.13,0.08,0.12,0.17c0,0.1-0.02,0.18-0.05,0.26c-0.66,2.75-1.31,5.5-1.97,8.25c-0.1,0.4-0.11,0.4-0.52,0.4
		c-0.24,0.01-0.49,0-0.73,0C35.06,10.78,34.76,10.79,34.47,10.78z"/>
	<path d="M50.55,10.78c-0.19,0-0.24-0.05-0.3-0.23c-0.08-0.31-0.16-0.62-0.23-0.94c-0.26-1.12-0.54-2.22-0.8-3.33
		c-0.04-0.12-0.04-0.23-0.11-0.32c-0.01-0.02-0.04-0.04-0.06-0.04s-0.06,0.01-0.06,0.04c-0.05,0.12-0.08,0.24-0.12,0.36
		c-0.25,1.07-0.52,2.12-0.77,3.19c-0.08,0.34-0.16,0.67-0.25,1.01c-0.06,0.23-0.1,0.26-0.35,0.26c-0.55,0.01-1.12,0.01-1.68,0
		c-0.28,0-0.31-0.04-0.38-0.32l-0.43-1.74c-0.53-2.15-1.06-4.31-1.6-6.45c-0.14-0.58-0.14-0.59,0.44-0.58h0.84c0.07,0,0.14,0,0.23,0
		c0.28,0.01,0.3,0.02,0.37,0.28c0.04,0.13,0.06,0.25,0.1,0.37c0.36,1.51,0.73,3.02,1.1,4.53c0.02,0.14,0,0.31,0.18,0.38
		c0.13-0.1,0.12-0.24,0.16-0.37c0.38-1.57,0.76-3.14,1.14-4.71c0.11-0.48,0.11-0.48,0.61-0.48h1.07c0.35,0,0.36,0.01,0.44,0.34
		l0.5,2.09c0.23,0.94,0.46,1.88,0.68,2.82c0.02,0.1,0.06,0.19,0.1,0.29c0.01,0.02,0.04,0.04,0.06,0.04s0.06-0.01,0.06-0.04
		c0.04-0.11,0.08-0.22,0.11-0.32c0.38-1.57,0.77-3.14,1.14-4.71c0.12-0.52,0.13-0.49,0.64-0.49h0.92c0.08,0,0.18,0,0.26,0.01
		c0.08,0.02,0.13,0.08,0.12,0.17c0,0.1-0.02,0.18-0.05,0.26c-0.66,2.75-1.31,5.5-1.97,8.25c-0.1,0.4-0.11,0.4-0.52,0.4
		c-0.24,0.01-0.49,0-0.73,0C51.14,10.78,50.84,10.79,50.55,10.78z"/>
	<path d="M55.85,10.78c-0.22,0-0.26-0.06-0.28-0.28v-0.3c0-2.65,0-5.3,0-7.95c0-0.58-0.02-0.56,0.56-0.56h1
		c0.22,0.01,0.26,0.06,0.28,0.28v0.35c0,1.31,0,2.61,0,3.93v4.04c0,0.49,0,0.49-0.49,0.49C56.57,10.79,56.21,10.79,55.85,10.78z"/>
	<path d="M61.36,10.78c-0.2,0-0.25-0.06-0.26-0.25c-0.01-0.12,0-0.25,0-0.38V4.08c0-0.13-0.01-0.26-0.02-0.38
		c0-0.08-0.06-0.14-0.14-0.16c-0.11-0.01-0.2-0.01-0.31-0.01h-1.6c-0.37-0.01-0.4-0.04-0.4-0.4c-0.01-0.38-0.01-0.77,0-1.15
		c0-0.24,0.06-0.28,0.3-0.29h0.23c1.92,0,3.83,0,5.73,0c0.52,0,0.53,0,0.53,0.54c0,0.32,0,0.66-0.01,0.98c0,0.25-0.05,0.3-0.29,0.3
		c-0.38,0.01-0.77,0.01-1.15,0.01c-0.25,0-0.5-0.01-0.76,0c-0.22,0.01-0.26,0.06-0.28,0.28c-0.01,0.13,0,0.26,0,0.38v2.99
		c0,1.04,0,2.09-0.01,3.13c0,0.48,0,0.48-0.49,0.48C62.06,10.79,61.71,10.79,61.36,10.78z"/>
	<path d="M71.6,10.78c-0.22,0-0.28-0.06-0.29-0.26V10.2c0-0.88,0-1.75,0-2.63c0-0.44-0.01-0.46-0.44-0.47h-2.45
		c-0.07,0-0.16,0-0.23,0.01c-0.16,0.01-0.22,0.07-0.22,0.22c-0.01,0.11-0.01,0.23-0.01,0.34v2.64c0,0.47-0.01,0.47-0.47,0.47
		c-0.36,0.01-0.72,0.01-1.08,0c-0.23,0-0.28-0.05-0.29-0.3v-0.23c0-2.67,0-5.35,0-8.02V1.92c0.02-0.17,0.07-0.22,0.25-0.23h1.33
		c0.19,0.01,0.24,0.07,0.25,0.28v0.46c0,0.8,0,1.61,0,2.4c0,0.42,0.02,0.44,0.42,0.44h2.53c0.36,0,0.4-0.04,0.4-0.38V2.19
		c0-0.11,0-0.23,0.01-0.34c0.01-0.08,0.07-0.13,0.16-0.16c0.04-0.01,0.07-0.01,0.11-0.01h1.3c0.23,0.01,0.26,0.06,0.28,0.28
		c0.01,0.12,0.01,0.24,0.01,0.35v3.93c0,1.34,0,2.67,0,4.02c-0.01,0.52-0.01,0.52-0.54,0.52C72.29,10.79,71.95,10.79,71.6,10.78z"/>
	<path d="M78.97,10.78c-0.22,0-0.26-0.06-0.28-0.28v-0.3c0-2.65,0-5.3,0-7.95c0-0.58-0.02-0.56,0.56-0.56h1
		c0.22,0.01,0.26,0.06,0.28,0.28v0.35c0,1.31,0,2.61,0,3.93v4.04c0,0.49,0,0.49-0.49,0.49C79.69,10.79,79.33,10.79,78.97,10.78z"/>
	<path d="M84.48,10.78c-0.2,0-0.25-0.06-0.26-0.25c-0.01-0.12,0-0.25,0-0.38V4.08c0-0.13-0.01-0.26-0.02-0.38
		c0-0.08-0.06-0.14-0.14-0.16c-0.11-0.01-0.2-0.01-0.31-0.01h-1.6c-0.37-0.01-0.4-0.04-0.4-0.4c-0.01-0.38-0.01-0.77,0-1.15
		c0-0.24,0.06-0.28,0.3-0.29h0.23c1.92,0,3.83,0,5.73,0c0.52,0,0.53,0,0.53,0.54c0,0.32,0,0.66-0.01,0.98c0,0.25-0.05,0.3-0.29,0.3
		c-0.38,0.01-0.77,0.01-1.15,0.01c-0.25,0-0.5-0.01-0.76,0c-0.22,0.01-0.26,0.06-0.28,0.28c-0.01,0.13,0,0.26,0,0.38v2.99
		c0,1.04,0,2.09-0.01,3.13c0,0.48,0,0.48-0.49,0.48C85.19,10.79,84.84,10.79,84.48,10.78z"/>
</g>
</svg>
