<?xml version="1.0" encoding="UTF-8"?>
<svg id="uuid-7c30a28b-a0ab-46c2-8bfa-1a886eed1b82" xmlns="http://www.w3.org/2000/svg" viewBox="0 0 236.34 63"><defs><style>.uuid-51488068-85ad-4171-aa5d-58f21d9e0a99{fill:#0f75b9;}.uuid-571fe654-89e7-4391-84c9-5e0a96aaf954{fill:#f7941d;}</style></defs><g id="uuid-ae1c6d5c-ff18-45f9-aaad-f8b181de53ff"><g><path class="uuid-51488068-85ad-4171-aa5d-58f21d9e0a99" d="M11.41,0V8.96H0V0H11.41Zm-.09,15.39V62.46H.18V15.39H11.31Z"/><path class="uuid-51488068-85ad-4171-aa5d-58f21d9e0a99" d="M19.46,48.52v-.36h10.5v.18c0,1.75,.71,3.12,2.13,4.12,1.42,1,3.27,1.49,5.57,1.49,2.47,0,4.41-.44,5.79-1.31,1.39-.87,2.08-2.19,2.08-3.94,0-1.45-.51-2.56-1.54-3.35-1.03-.78-2.75-1.36-5.16-1.72l-4.98-.81c-4.71-.78-8.18-2.23-10.41-4.35-2.23-2.11-3.35-5.13-3.35-9.05,0-4.47,1.64-8.01,4.93-10.64,3.29-2.62,7.5-3.94,12.63-3.94,3.5,0,6.59,.59,9.28,1.77,2.69,1.18,4.77,2.81,6.25,4.89s2.22,4.42,2.22,7.02v.54h-10.41v-.27c0-1.63-.65-2.9-1.95-3.8-1.3-.9-3.09-1.36-5.39-1.36s-4.04,.45-5.25,1.36c-1.21,.9-1.81,2.11-1.81,3.62,0,1.39,.47,2.47,1.4,3.26,.93,.78,2.46,1.33,4.57,1.63l5.52,.81c4.71,.66,8.24,2.11,10.59,4.35,2.35,2.23,3.53,5.31,3.53,9.23,0,4.83-1.75,8.55-5.25,11.18-3.5,2.63-8.06,3.94-13.67,3.94s-9.69-1.31-12.94-3.94c-3.26-2.62-4.89-6.14-4.89-10.55Z"/><path class="uuid-51488068-85ad-4171-aa5d-58f21d9e0a99" d="M63.18,43.27v-8.78c0-6.7,1.7-11.65,5.11-14.85,3.41-3.2,8.07-4.8,13.98-4.8s10.47,1.6,13.85,4.8c3.38,3.2,5.07,8.15,5.07,14.85v8.78c0,6.76-1.69,11.74-5.07,14.94-3.38,3.2-8,4.8-13.85,4.8s-10.58-1.6-13.98-4.8c-3.41-3.2-5.11-8.18-5.11-14.94Zm26.88-8.6c0-6.58-2.59-9.87-7.78-9.87s-7.97,3.29-7.97,9.87v8.51c0,6.58,2.66,9.87,7.97,9.87s7.78-3.29,7.78-9.87v-8.51Z"/><path class="uuid-51488068-85ad-4171-aa5d-58f21d9e0a99" d="M110.16,48.15V0h11.22V47.43c0,1.93,.35,3.3,1.04,4.12s1.83,1.22,3.39,1.22h3.8v9.69h-5.16c-4.53,0-8.04-1.24-10.55-3.71-2.5-2.47-3.76-6-3.76-10.59Z"/><path class="uuid-571fe654-89e7-4391-84c9-5e0a96aaf954" d="M147.27,49.6v12.85h-12.58v-12.85h12.58Z"/><path class="uuid-571fe654-89e7-4391-84c9-5e0a96aaf954" d="M153.97,48.52v-.36h10.5v.18c0,1.75,.71,3.12,2.13,4.12,1.42,1,3.27,1.49,5.57,1.49,2.47,0,4.41-.44,5.79-1.31,1.39-.87,2.08-2.19,2.08-3.94,0-1.45-.51-2.56-1.54-3.35-1.03-.78-2.74-1.36-5.16-1.72l-4.98-.81c-4.71-.78-8.18-2.23-10.41-4.35s-3.35-5.13-3.35-9.05c0-4.47,1.64-8.01,4.93-10.64,3.29-2.62,7.5-3.94,12.63-3.94,3.5,0,6.59,.59,9.28,1.77,2.68,1.18,4.77,2.81,6.25,4.89,1.48,2.08,2.22,4.42,2.22,7.02v.54h-10.41v-.27c0-1.63-.65-2.9-1.95-3.8-1.3-.9-3.09-1.36-5.39-1.36s-4.04,.45-5.25,1.36c-1.21,.9-1.81,2.11-1.81,3.62,0,1.39,.47,2.47,1.4,3.26,.93,.78,2.46,1.33,4.57,1.63l5.52,.81c4.71,.66,8.24,2.11,10.59,4.35s3.53,5.31,3.53,9.23c0,4.83-1.75,8.55-5.25,11.18-3.5,2.63-8.06,3.94-13.67,3.94s-9.69-1.31-12.94-3.94c-3.26-2.62-4.89-6.14-4.89-10.55Z"/><path class="uuid-571fe654-89e7-4391-84c9-5e0a96aaf954" d="M208.82,43.54c0,3.5,.78,6,2.35,7.51,1.57,1.51,3.8,2.26,6.7,2.26,2.23,0,3.98-.47,5.25-1.4,1.27-.93,1.96-2.25,2.08-3.94l.09-.27h10.68v.45c0,4.47-1.66,8.06-4.98,10.77-3.32,2.72-7.85,4.07-13.58,4.07-6.03,0-10.83-1.74-14.39-5.2-3.56-3.47-5.34-8.83-5.34-16.07v-5.7c0-7.06,1.72-12.36,5.16-15.89,3.44-3.53,8.18-5.3,14.21-5.3s10.61,1.78,14.08,5.34c3.47,3.56,5.2,8.84,5.2,15.84v6.25h-27.52v1.27Zm0-9.23v.27h16.29v-1.18c0-5.97-2.69-8.96-8.06-8.96-2.65,0-4.69,.75-6.11,2.26-1.42,1.51-2.13,4.04-2.13,7.6Z"/></g></g></svg>