<?xml version="1.0" encoding="utf-8"?>
<!-- Generator: Adobe Illustrator 28.3.0, SVG Export Plug-In . SVG Version: 6.00 Build 0)  -->
<svg version="1.1" id="Lager_1" xmlns="http://www.w3.org/2000/svg" xmlns:xlink="http://www.w3.org/1999/xlink" x="0px" y="0px"
	 viewBox="0 0 141.73 141.73" style="enable-background:new 0 0 141.73 141.73;" xml:space="preserve">
<style type="text/css">
	.st0{fill:#020203;}
	.st1{fill:#FFFFFF;}
</style>
<g>
	<g>
		<g>
			<path class="st0" d="M141.38,71.06c0,26.05-14.12,48.79-35.13,61c-10.4,6.05-22.49,9.51-35.38,9.51
				c-31.56,0-58.28-20.74-67.27-49.33c-2.1-6.68-3.24-13.8-3.24-21.18c0-38.94,31.57-70.51,70.51-70.51
				C109.81,0.55,141.38,32.12,141.38,71.06z"/>
		</g>
	</g>
	<g>
		<path class="st1" d="M49.89,40.63c0,5.76-4.61,10.15-10.07,10.15c-5.43,0-10.07-4.36-10.07-10.15c0-5.65,4.45-10.14,10.07-10.15
			C45.43,30.48,49.89,34.97,49.89,40.63z"/>
		<path class="st1" d="M75.52,64.73c0-2.09,0-6.47,0-8.56H59.19v55.46h16.33c0-7.67,0-15.35,0-23.02c0-1.98-0.05-3.96,0.05-5.94
			c0.08-1.6,0.32-3.17,0.87-4.68c0.81-2.25,2.15-4.07,4.31-5.2c1.63-0.85,3.38-1.13,5.19-1.11c1.25,0.01,2.46,0.19,3.61,0.66
			c2.23,0.92,3.59,2.65,4.42,4.84c0.79,2.08,1.03,4.26,1.03,6.46c0.02,9.32,0.01,18.65,0.01,27.97h16.97c0-11.01,0-22.01,0-33.02
			c0-1.53-0.06-3.06-0.24-4.58c-0.26-2.24-0.75-4.43-1.59-6.53c-1.6-3.97-4.21-7.05-8.03-9.05c-2.97-1.56-6.17-2.17-9.5-2.28
			c-1.42-0.04-2.83,0.07-4.24,0.31c-4.12,0.72-7.61,2.63-10.52,5.61c-0.88,0.9-1.65,1.89-2.36,3.02V64.73z"/>
		<path class="st1" d="M48.41,56.18H31.37v55.46h17.05V85.31C48.41,76.36,48.41,65.12,48.41,56.18z"/>
	</g>
</g>
</svg>
