<svg xmlns="http://www.w3.org/2000/svg" id="Layer_12" data-name="Layer 12" viewBox="0 0 252.18 60.01"><defs><style>.cls-1{fill:#231f20;}</style></defs><path class="cls-1" d="M194.26,345.46a2.24,2.24,0,0,1-2.31-2.84,4.33,4.33,0,0,1,1.72-2.44c1.65-1.38,3.43-3,4-5.87.92-4.41-1.71-7.45-7.32-7.45-8.77,0-16.75,7.39-19.12,18.47-2.18,10.35,1.78,18.07,11.93,18.07,5.54,0,8.38-2.25,11.41-4.82a5.53,5.53,0,0,1,3.23-1.51,2.09,2.09,0,0,1,1.72.79,2.05,2.05,0,0,1,.59,1.91,6,6,0,0,1-1.52,2.44c-3.23,3.56-9.62,7.06-17.47,7.06-13.26,0-19.46-10.16-16.55-23.75,3-14.11,14.17-24.4,26.64-24.4,9,0,14.18,5.28,12.53,13.06a16.81,16.81,0,0,1-7.26,10.49A4.17,4.17,0,0,1,194.26,345.46Z" transform="translate(-163.88 -314.27)"></path><path class="cls-1" d="M225.92,354.3c-.2,1.05,0,1.31.46,1.31a2.6,2.6,0,0,0,1.39-.59c2.11-1.32,3.56.2,3.23,2a4,4,0,0,1-1.65,2.24,7.69,7.69,0,0,1-4.95,1.65c-2.77,0-4.42-1.12-4.48-3.89a12.18,12.18,0,0,1-8.84,4.09c-5.87,0-8.31-4.88-6.92-11.34,1.78-8.38,8.11-15,15.49-15a4.93,4.93,0,0,1,4.36,2,3.23,3.23,0,0,1,3.16-2c1.65,0,2.71.92,2.31,2.76Zm-15.63-4.69c-.73,3.63.53,5.87,3,5.87,3.89,0,7.39-4.35,8.44-8.7l.14-.33c.79-3.76-.66-6.07-3.24-6.07C214.51,340.38,211.34,344.8,210.29,349.61Z" transform="translate(-163.88 -314.27)"></path><path class="cls-1" d="M248.47,319.94c-.79,0-1.32.33-1.58,1.58l-4,18.73c1.39-3.1,5.21-5.47,9.17-5.47,5.87,0,8.11,4.88,6.86,10.94-1.65,7.78-8,15.37-16.42,15.37-6.73,0-8.77-5.28-7.52-11l6-28.36c1.32-6.2,4.09-7.45,8.44-7.45h.47c1.51,0,2.57.85,2.11,2.83a3.31,3.31,0,0,1-3.3,2.84Zm4,26c.59-2.77.13-5.54-3.3-5.54-3.76,0-6.86,3.17-8,8.11l-.26,1.26c-.53,3,.2,5.73,3.1,5.73C248.21,355.48,251.64,349.94,252.5,345.92Z" transform="translate(-163.88 -314.27)"></path><path class="cls-1" d="M283.3,354.3c-.2,1.05,0,1.31.46,1.31a2.58,2.58,0,0,0,1.38-.59c2.11-1.32,3.56.2,3.23,2a4,4,0,0,1-1.64,2.24,7.69,7.69,0,0,1-5,1.65c-2.77,0-4.42-1.12-4.49-3.89a12.14,12.14,0,0,1-8.83,4.09c-5.87,0-8.31-4.88-6.93-11.34,1.78-8.38,8.11-15,15.5-15a4.92,4.92,0,0,1,4.35,2,3.24,3.24,0,0,1,3.17-2c1.65,0,2.7.92,2.31,2.76Zm-15.63-4.69c-.73,3.63.52,5.87,3,5.87,3.89,0,7.39-4.35,8.44-8.7l.13-.33c.79-3.76-.66-6.07-3.23-6.07C271.89,340.38,268.72,344.8,267.67,349.61Z" transform="translate(-163.88 -314.27)"></path><path class="cls-1" d="M300.58,340a11.39,11.39,0,0,1,9.23-5.21c4.09,0,6.66,2.57,5.54,7.91l-2.51,11.61c-.2,1.05,0,1.31.53,1.31a2.43,2.43,0,0,0,1.32-.59c2.11-1.32,3.56.2,3.23,2a4,4,0,0,1-1.65,2.24,7.44,7.44,0,0,1-4.88,1.65c-3.43,0-5.27-1.78-4.29-6.4L309.28,344c.66-2.84-.46-3.63-2-3.63-3,0-7.13,2.9-8.64,9l-1.85,8.71a3.55,3.55,0,0,1-3.56,2.83,2.16,2.16,0,0,1-2.24-2.83l4.35-20.52a3.53,3.53,0,0,1,3.49-2.76,2.14,2.14,0,0,1,2.31,2.76Z" transform="translate(-163.88 -314.27)"></path><path class="cls-1" d="M337.11,334.78c7.65,0,12.4,4.81,10.62,13.12a16.08,16.08,0,0,1-16.16,13c-7.58,0-12.4-4.75-10.61-13A16.17,16.17,0,0,1,337.11,334.78Zm-1.19,5.6c-4.22,0-7.78,2.9-8.77,7.52s1.39,7.39,5.61,7.39a9,9,0,0,0,8.77-7.39C342.52,343.28,340.08,340.38,335.92,340.38Z" transform="translate(-163.88 -314.27)"></path><path class="cls-1" d="M365.54,342.69c-1.32-1.12-2.05-2.44-4.36-2.44a3.5,3.5,0,0,0-3.69,2.5c-.33,1.65,1.19,2.58,3.1,4,2.57,1.84,5.67,4,4.81,7.91s-3.89,6.4-8.31,6.4c-3.09,0-6.66-1-5.93-4.42a3.36,3.36,0,0,1,3.17-2.77c1.45,0,2,1.78,3.82,1.78,1,0,1.45-.39,1.58-1,.27-1.19-1.45-2.24-3.69-3.76-2.51-1.71-5.08-3.56-4.16-8,1.06-5.07,5.87-8.17,10.62-8.17,3.89,0,6.2,1.71,7.39,3.89C371.27,341.3,367.25,344.34,365.54,342.69Z" transform="translate(-163.88 -314.27)"></path><path class="cls-1" d="M385.65,342.69c-1.32-1.12-2-2.44-4.35-2.44a3.49,3.49,0,0,0-3.69,2.5c-.33,1.65,1.18,2.58,3.1,4,2.57,1.84,5.67,4,4.81,7.91s-3.89,6.4-8.31,6.4c-3.1,0-6.66-1-5.93-4.42a3.34,3.34,0,0,1,3.16-2.77c1.45,0,2.05,1.78,3.83,1.78,1,0,1.45-.39,1.58-1,.26-1.19-1.45-2.24-3.69-3.76-2.51-1.71-5.08-3.56-4.16-8,1.06-5.07,5.87-8.17,10.62-8.17,3.89,0,6.2,1.71,7.38,3.89C391.39,341.3,387.37,344.34,385.65,342.69Z" transform="translate(-163.88 -314.27)"></path><path class="cls-1" d="M410.25,337.48a3.53,3.53,0,0,1,3.5-2.7,2.09,2.09,0,0,1,2.24,2.7l-5.08,24.07c-1.91,9-7.78,12.73-14.71,12.73-3.82,0-6.86-.93-8.5-2.51a2.8,2.8,0,0,1-.66-2.31,3.65,3.65,0,0,1,3.23-2.77,4.25,4.25,0,0,1,2.17.66,8.16,8.16,0,0,0,4.82,1.45c3.89,0,6.86-2.37,8.18-8.57l.66-3a12,12,0,0,1-8.84,3.69c-4.55,0-6.73-2.64-5.67-7.85l3.29-15.43a3.31,3.31,0,0,1,3.5-2.83c1.78,0,2.7.92,2.31,2.83l-3,13.92c-.66,3.1.53,3.82,2,3.82,3.1,0,7.39-3.16,8.84-9.83Z" transform="translate(-163.88 -314.27)"></path></svg>