<?xml version="1.0" encoding="UTF-8"?>
<svg id="Lager_1" xmlns="http://www.w3.org/2000/svg" version="1.1" viewBox="0 0 1842.52 2566.06">
  <!-- Generator: Adobe Illustrator 29.7.1, SVG Export Plug-In . SVG Version: 2.1.1 Build 8)  -->
  <defs>
    <style>
      .st0 {
        fill: #1d1d1b;
      }
    </style>
  </defs>
  <path class="st0" d="M690.96,699.32c13.41-8.75,20.12-23.9,20.12-45.48V77.45c0-13.41-5.84-27.69-17.49-42.86h104.96c-11.67,15.17-17.49,29.45-17.49,42.86v553.64h73.47c8.73,0,16.45-6.12,23.18-18.37,6.68-12.25,12.36-24.78,17.04-37.61l16.62,6.12c-9.34,27.99-14,58.32-14,90.97v13.56c0,4.37.29,8.9.87,13.56h-207.28Z"/>
  <path class="st0" d="M928.86,699.32c13.39-8.75,20.1-23.9,20.1-45.48V77.45c0-13.41-5.82-27.69-17.49-42.86h204.68c-.59,4.68-.87,9.49-.87,14.43v14.43c0,33.83,4.64,64.44,14,91.84l-16.64,6.11c-4.66-12.25-10.34-24.49-17.06-36.72-6.69-12.25-14.42-18.37-23.16-18.37h-73.47v72.58h50.73c13.41,0,23.31-9.32,29.74-27.97l14.87,1.75-23.62,131.19-16.62-2.62c0-21.56-5.84-32.36-17.49-32.36h-37.61v382.22h73.47c8.75,0,16.47-6.12,23.16-18.37,6.71-12.25,12.4-24.78,17.06-37.61l16.64,6.12c-9.35,27.99-14,58.32-14,90.97v13.56c0,4.37.29,8.9.87,13.56h-207.28Z"/>
  <path class="st0" d="M334.98,1447.38h-106.7c7.57-11.07,11.37-20.4,11.37-27.99,0-6.41-2.51-15.16-7.43-26.24-4.96-11.07-9.18-22.74-12.68-34.99-9.34-31.49-17.65-66.33-24.93-104.51-7.3-38.18-13.56-76.38-18.82-114.58-5.23-38.18-9.17-74.79-11.79-109.77-2.62-34.99-3.94-64.73-3.94-89.22v-157.43h70.85v157.43c0,21.01.56,45.05,1.75,72.16,1.14,27.12,3.48,56.85,7,89.22,3.5,32.36,8.58,66.78,15.31,103.21,6.69,36.45,15.31,74.2,25.8,113.26,11.05-40.24,19.97-80.61,26.66-121.13,6.71-40.52,11.96-77.98,15.74-112.4,3.8-34.4,6.27-64.42,7.45-90.09,1.16-25.65,1.73-43.73,1.73-54.23v-157.43h70.85v157.43c0,26.83-1.6,61.09-4.81,102.78-3.21,41.7-8.02,84.84-14.42,129.45-6.43,44.61-14.45,87.75-24.07,129.45-9.62,41.68-20.84,76.23-33.68,103.63-2.34,5.84-3.5,10.21-3.5,13.12,0,8.17,4.09,17.8,12.25,28.86"/>
  <path class="st0" d="M450.44,1401.89v-576.39c0-13.41-5.84-27.69-17.49-42.86h104.96c-11.67,15.17-17.49,29.45-17.49,42.86v576.39c0,21.58,7,36.74,20.98,45.48h-111.07c13.41-8.75,20.12-23.9,20.12-45.48"/>
  <path class="st0" d="M770.55,868.36c-9.94-10.5-27.42-15.74-52.48-15.74-15.74,0-28.73,2.49-38.92,7.43-10.21,4.96-18.23,11.96-24.05,20.99-5.84,9.05-9.76,19.98-11.81,32.8-2.05,12.83-3.06,27.12-3.06,42.84,0,18.1,1.31,37.19,3.94,57.29,2.64,20.12,5.69,39.23,9.18,57.29,3.5,18.08,7.13,34.26,10.93,48.55,3.78,14.3,6.85,24.93,9.18,31.93,17.49,53.66,32.35,80.47,44.61,80.47,2.91,0,7.43-3.5,13.56-10.5,6.12-7,12.68-18.94,19.68-35.86,7-16.9,14.13-39.36,21.43-67.35,7.28-27.99,13.56-62.98,18.81-104.95,1.14-9.34,1.88-18.52,2.19-27.55.29-9.05.44-18.22.44-27.55,0-22.15-1.75-40.37-5.25-54.67-3.52-14.28-9.62-26.09-18.37-35.42M821.28,819.38c16.32,16.92,27.69,38.49,34.1,64.73,6.41,26.24,9.62,54.23,9.62,83.97,0,19.24-1.18,38.77-3.48,58.59-2.34,19.83-5.27,38.64-8.75,56.42-3.5,17.8-7.3,34.55-11.37,50.29-4.09,15.74-7.87,29.17-11.37,40.24-27.99,85.72-65.32,128.58-111.96,128.58s-85.15-42.86-111.96-128.58c-4.09-12.25-8.16-26.38-12.25-42.42-4.07-16.03-7.87-33.09-11.35-51.17-3.52-18.07-6.27-36.87-8.33-56.4-2.04-19.55-3.06-39.51-3.06-59.92,0-24.49,2.32-47.8,7-69.97,4.66-22.15,12.68-41.55,24.05-58.17,11.37-16.62,26.39-29.74,45.05-39.36,18.65-9.62,42.27-14.43,70.85-14.43,45.48,0,79.88,12.55,103.21,37.61"/>
  <path class="st0" d="M886.87,1447.38c13.39-8.75,20.12-23.9,20.12-45.48v-576.39c0-13.41-5.84-27.69-17.49-42.86h104.95c-11.66,15.17-17.48,29.45-17.48,42.86v553.64h73.46c8.75,0,16.47-6.12,23.18-18.37,6.69-12.25,12.38-24.78,17.06-37.61l16.62,6.14c-9.34,27.97-14,58.3-14,90.95v13.56c0,4.37.29,8.9.87,13.56h-207.28Z"/>
  <path class="st0" d="M1268.2,868.36c-9.92-10.5-27.42-15.74-52.5-15.74-15.73,0-28.71,2.49-38.89,7.43-10.23,4.96-18.23,11.96-24.05,20.99-5.85,9.05-9.79,19.98-11.83,32.8-2.05,12.83-3.06,27.12-3.06,42.84,0,18.1,1.31,37.19,3.94,57.29,2.62,20.12,5.69,39.23,9.18,57.29,3.5,18.08,7.13,34.26,10.93,48.55,3.8,14.3,6.85,24.93,9.18,31.93,17.49,53.66,32.36,80.47,44.59,80.47,2.93,0,7.45-3.5,13.57-10.5,6.12-7,12.68-18.94,19.68-35.86,7-16.9,14.15-39.36,21.43-67.35,7.28-27.99,13.56-62.98,18.81-104.95,1.16-9.34,1.88-18.52,2.19-27.55.29-9.05.44-18.22.44-27.55,0-22.15-1.75-40.37-5.26-54.67-3.48-14.28-9.6-26.09-18.35-35.42M1318.94,819.38c16.32,16.92,27.69,38.49,34.11,64.73,6.41,26.24,9.62,54.23,9.62,83.97,0,19.24-1.18,38.77-3.5,58.59-2.34,19.83-5.25,38.64-8.75,56.42-3.52,17.8-7.3,34.55-11.37,50.29-4.09,15.74-7.87,29.17-11.37,40.24-27.99,85.72-65.32,128.58-111.98,128.58s-85.13-42.86-111.94-128.58c-4.07-12.25-8.16-26.38-12.23-42.42-4.1-16.03-7.89-33.09-11.39-51.17-3.5-18.07-6.26-36.87-8.31-56.4-2.04-19.55-3.06-39.51-3.06-59.92,0-24.49,2.34-47.8,7.01-69.97,4.66-22.15,12.67-41.55,24.04-58.17,11.37-16.62,26.39-29.74,45.05-39.36,18.65-9.62,42.27-14.43,70.83-14.43,45.5,0,79.9,12.55,103.23,37.61"/>
  <path class="st0" d="M1568.2,1447.38c14.57-9.32,21.87-24.49,21.87-45.48v-171.42c0-32.06-2.19-66.61-6.56-103.65-4.37-37.02-11.08-72.73-20.12-107.15-9.05-34.4-20.42-65.45-34.11-93.14-13.71-27.7-29.6-48.55-47.67-62.54v537.9c0,21.58,7,36.74,20.99,45.48h-111.09c13.42-8.75,20.12-23.9,20.12-45.48v-576.39c0-13.41-5.84-27.69-17.48-42.86h16.6c20.42,0,38.77,1.03,55.11,3.06,16.33,2.05,31.49,6.86,45.48,14.43,14.01,7.59,27.25,18.81,39.82,33.68,12.51,14.87,25.48,34.85,38.91,59.92v-68.23c0-12.82-6.12-27.12-18.37-42.86h104.96c-11.69,16.92-17.51,31.2-17.51,42.86v576.39c0,21.58,7.01,36.74,20.99,45.48h-111.94Z"/>
  <path class="st0" d="M270.27,2122.83c9.32-6.41,17.33-17.63,24.05-33.68,6.69-16.03,12.38-34.68,17.06-55.98,4.66-21.28,8.58-44.17,11.81-68.66,3.18-24.49,5.97-48.55,8.31-72.16,2.32-23.6,4.22-45.75,5.67-66.48,1.46-20.69,3.08-37.73,4.81-51.15,1.16-8.16,2.62-21.43,4.37-39.8,1.77-18.37,2.64-40.08,2.64-65.16,0-12.82-.45-23.45-1.33-31.93-.87-8.44-3.92-15.14-9.17-20.12-5.25-4.95-13.14-8.6-23.63-10.93-10.48-2.3-25.35-3.77-44.59-4.37v520.42ZM180.18,2195.43c13.41-8.75,20.12-23.9,20.12-45.48v-576.39c0-13.42-5.84-27.7-17.49-42.86h100.59c89.77,0,134.69,42.86,134.69,128.56,0,23.35-.3,42.86-.87,58.6-.57,15.74-1.46,31.2-2.62,46.36-1.18,15.17-2.62,31.93-4.36,50.29-1.77,18.37-3.8,41.83-6.14,70.4-2.32,32.68-6.69,67.07-13.1,103.21-6.43,36.16-15.63,69.69-27.57,100.59-11.94,30.92-26.68,56.42-44.15,76.54-17.49,20.12-38.79,30.18-63.87,30.18h-75.21Z"/>
  <path class="st0" d="M467.06,2149.94v-576.39c0-13.42-5.84-27.7-17.49-42.86h104.96c-11.67,15.16-17.49,29.44-17.49,42.86v576.39c0,21.58,6.98,36.74,20.99,45.48h-111.09c13.41-8.75,20.12-23.9,20.12-45.48"/>
  <path class="st0" d="M767.92,2195.43c14.57-9.32,21.87-24.49,21.87-45.48v-171.42c0-32.08-2.17-66.61-6.56-103.65-4.37-37.04-11.08-72.73-20.12-107.15-9.03-34.4-20.4-65.45-34.1-93.15-13.71-27.69-29.6-48.53-47.67-62.54v537.92c0,21.58,6.98,36.74,20.99,45.48h-111.09c13.41-8.75,20.12-23.9,20.12-45.48v-576.39c0-13.42-5.85-27.7-17.49-42.86h16.62c20.4,0,38.77,1.03,55.11,3.04,16.32,2.07,31.47,6.86,45.48,14.43,13.98,7.6,27.23,18.81,39.78,33.69,12.53,14.85,25.5,34.84,38.92,59.9v-68.21c0-12.83-6.11-27.12-18.37-42.86h104.96c-11.67,16.9-17.49,31.2-17.49,42.86v576.39c0,21.58,6.98,36.74,20.99,45.48h-111.96Z"/>
  <path class="st0" d="M1142.27,2195.43h-75.22c-24.49,0-45.33-8.75-62.52-26.26-17.21-17.48-31.49-39.92-42.86-67.33-11.39-27.38-20.42-57.56-27.12-90.53-6.71-32.94-11.81-64.86-15.31-95.78-3.52-30.88-5.85-58.59-7-83.08-1.18-24.49-2.05-41.99-2.62-52.48-1.18-15.74-2.49-33.24-3.94-52.48-1.46-19.24-2.19-40.52-2.19-63.85,0-88.63,44.61-132.94,133.83-132.94h54.21c9.91,0,18.94.13,27.13.44,8.14.29,15.14.74,20.98,1.31l-8.73,92.72c-6.43-15.16-19.56-22.76-39.38-22.76h-39.34c-19.85,0-35.14,1.33-45.92,3.95-10.82,2.61-18.69,6.71-23.63,12.25-4.96,5.53-7.86,12.68-8.73,21.43-.87,8.75-1.31,19.23-1.31,31.47,0,25.08.87,46.51,2.61,64.29,1.77,17.8,3.21,30.77,4.39,38.92,1.14,13.99,2.3,31.2,3.5,51.61,1.16,20.42,2.91,42.42,5.25,66.02,2.3,23.62,5.1,47.54,8.31,71.74,3.2,24.19,7.28,46.95,12.25,68.23,4.95,21.28,10.93,39.93,17.91,55.96,7,16.05,15.44,27.55,25.38,34.55,0-42.56-.15-84.69-.45-126.39-.29-41.68-.42-83.52-.42-125.52v-62.96c0-20.99.27-41.99.87-62.98-11.1,0-16.64,3.8-16.64,11.37v3.5c0,4.68-1.16,9.34-3.5,14h-14.87l8.75-120.71h19.24c-.59,1.77-.87,3.8-.87,6.12,0,7,2.34,11.52,7.01,13.56,4.64,2.05,10.48,3.08,17.49,3.08,2.91,0,5.95-.15,9.18-.45,3.2-.29,6.54-.44,10.04-.44l56.85-.87c-15.17,13.42-22.74,33.24-22.74,59.48v416.33c0,21.58,6.71,36.74,20.12,45.48"/>
  <path class="st0" d="M1293.58,1530.69c-2.34,41.99-6.56,84.56-12.67,127.69-6.14,43.16-12.55,85.28-19.24,126.39-6.73,41.11-12.57,80.32-17.51,117.65-4.96,37.33-7.43,71.14-7.43,101.46,0,14.57.89,29.15,2.62,43.73,1.75,14.57,4.95,27.84,9.62,39.78,4.68,11.96,11.51,21.58,20.56,28.86,9.03,7.3,20.56,10.93,34.55,10.93,5.25-.57,14.87-4.66,28.86-12.25v-541.4c0-13.42-6.43-27.7-19.24-42.86h106.7c-12.83,15.16-19.23,29.44-19.23,42.86v576.39c0,20.99,7,36.17,20.99,45.48h-30.61c-6.43,0-11.96-.87-16.62-2.62-4.68-1.75-9.34-5.82-14.01-12.25-11.66,6.43-22.73,10.65-33.22,12.68-10.48,2.05-20.98,3.06-31.49,3.06-19.24,0-36.74-4.66-52.48-13.98-15.74-9.34-29.3-22.17-40.66-38.5-11.37-16.32-20.27-35.86-26.68-58.59-6.43-22.74-9.62-47.81-9.62-75.22,0-29.74,1.88-62.83,5.69-99.28,3.77-36.43,8.44-73.91,13.98-112.4,5.53-38.47,11.37-76.67,17.49-114.58,6.12-37.88,11.24-73.17,15.31-105.82,0-2.34-.72-6.12-2.19-11.37-1.46-5.25-3.35-10.5-5.69-15.74-2.34-5.25-5.1-9.76-8.29-13.56-3.21-3.8-6.56-5.97-10.08-6.56h100.59Z"/>
  <path class="st0" d="M1435.26,2195.43c13.41-8.75,20.1-23.9,20.1-45.48v-576.39c0-13.42-5.82-27.7-17.48-42.86h204.66c-.57,4.68-.87,9.47-.87,14.43v14.43c0,33.83,4.68,64.42,14,91.83l-16.6,6.12c-4.68-12.25-10.38-24.49-17.06-36.72-6.73-12.26-14.45-18.39-23.18-18.39h-73.49v72.6h50.73c13.42,0,23.33-9.32,29.74-27.99l14.89,1.77-23.63,131.19-16.6-2.62c0-21.56-5.85-32.36-17.51-32.36h-37.61v382.22h73.49c8.73,0,16.45-6.12,23.18-18.39,6.68-12.23,12.38-24.76,17.06-37.59l16.6,6.14c-9.32,27.97-14,58.28-14,90.93v13.57c0,4.37.3,8.9.87,13.56h-207.28Z"/>
  <path class="st0" d="M1364.97,2358.62l-.24,1.16c.54-.2,1.09-.42,1.75-.86l-1.51-.3ZM1681.99,2457.22c-10.9-.54-21.48-2.56-31.22-9.13-3.01-.59-2.74-2.1-2.74-2.1l3.04.59,16.67,3.2c1.5.3,3.3-.94,3.3-.94l-1.21-1.78c-4.56-.87-7.57-1.48-10.33-3.57l-1.5-.29c.29-1.51,1.8-1.23,1.8-1.23,4.52.89,9.08,1.77,12.4.82l1.51.29q.29-1.51-1.21-1.8c-3.03-.59-8.8-3.26-12.11-2.34-1.53-.29-2.74-2.1-2.74-2.1,0,0,3.31-.94,4.83-.64,9.39.24,16.96,1.68,24.86,9.5,4.26,2.39,6.39,7.5,6.39,7.5-.29,1.51-3.87,3.95-11.74,4.02M1649.73,2469.87c-.29,1.51-7.84.05-12.4-.82-10.31-3.55-20.03-10.13-28.88-21.24-1.21-1.82-2.46-3.62-2.46-3.62,1.8-1.23,3.03.59,4.22,2.39,5.52,4.21,11.27,6.86,16.74,11.05l4.56.87-1.23-1.82c-1.24-1.78-3.95-3.89-5.2-5.69q-1.21-1.8-.93-3.3s1.51.27,2.76,2.07l9.99,5.08,1.53.29c1.51.3,1.8-1.21.29-1.51-1.21-1.82-2.74-2.12-5.47-4.21-1.53-.27-1.23-1.82-1.23-1.82l4.52.87c4.27,2.39,9.72,6.59,13.1,13.54.94,3.3,1.6,8.12.07,7.86M1598.37,2434.87c.3-1.5,1.77-1.23,4.52.87l13.64,2.62c1.51.3,3.31-.94,3.31-.94.29-1.51-1.21-1.82-2.74-2.07-4.24-2.39-8.76-3.26-11.82-3.85-1.5-.29-3.01-.61-2.73-2.09,0,0,1.8-1.23,3.31-.96l12.13,2.34,1.8-1.21q.27-1.55-1.23-1.8l-10.6-2.07c-3.33.94-4.54-.86-4.54-.86,0,0,1.8-1.23,6.64-1.87,12.4.81,18.45,1.98,28.46,7.03,5.77,2.71,7.91,7.82,7.91,7.82-.27,1.5-5.97,6.69-12.33,7.03-12.7.69-21.77-1.03-31.49-7.6-3.04-.59-4.26-2.41-4.26-2.41M1598.27,2459.98c-1.53-.3-6.38.34-15.16-2.93-16.35-4.71-23.99-14.01-29.81-24.58-1.24-1.78-.94-3.3-.94-3.3,0,0,1.51.29,2.74,2.07l17.93,12.88c.64.89,2.74,2.09,2.74,2.09,0,0,.3-1.51-.94-3.31-1.23-1.8-3.65-5.42-4.88-7.22-1.53-.29-1.23-1.82-1.23-1.82.29-1.5,1.51.3,3.04.59,2.73,2.1,6.68,6.02,9.71,6.59l3.03.57-1.23-1.8s-2.44-3.63-5.2-5.72l-1.19-1.8,3.01.57c6.98,4.49,14,8.98,17.36,15.91,2.17,5.13,1.28,9.67,1.01,11.19M1551.6,2449.43c-.27,1.51-6.32.35-12.38-.81-11.83-3.85-24-14.03-30.4-21.53.27-1.53-.93-3.33-.93-3.33,1.5.29,2.99.57,4.24,2.39l15.49,9.25c1.23,1.82,2.74,2.09,4.52.87l-1.21-1.82c-1.23-1.8-3.67-5.38-6.43-7.52l-1.21-1.78,3.03.57c4.27,2.39,7,4.49,9.74,6.58q1.23,1.8,3.03.59s-1.51-.27-1.23-1.8c-1.23-1.82-4.91-7.22-6.39-7.52-1.23-1.82-2.74-2.09-.96-3.33l1.53.32c8.48,4.76,15.19,10.75,18.27,19.19,2.15,5.15,2.81,9.96,1.28,9.67M1507.71,2440.99c-.29,1.53-4.84.64-12.11-2.32-13.34-4.14-20.96-13.46-25.57-22.19-1.23-1.8-.94-3.31-.94-3.31l3.04.59,7.91,7.8,3.03.59q.29-1.51-.91-3.33c-1.24-1.82-.96-3.33-2.47-3.62-1.21-1.8-.91-3.31-.91-3.31l1.5.29c2.74,2.1,3.95,3.9,6.69,5.99l3.04.59s-1.24-1.8-.94-3.31c-1.21-1.78-2.46-3.6-5.18-5.72-1.53-.27-2.74-2.09-2.74-2.09,1.8-1.21,3.03.61,6.04,1.18,7.01,4.46,16.43,12.57,19.53,21.01,1.85,6.64,2.79,9.96.99,11.17M1469.56,2435.25c-.29,1.51-6.34.34-12.11-2.34-13.04-5.65-23.7-15.54-29.54-26.09-1.21-1.78-2.73-2.1-2.44-3.6q1.51.27,4.26,2.37l10.66,9.89s1.21,1.82,1.5.32q1.53.29.3-1.51c.29-1.51-2.15-5.15-3.38-6.95-1.51-.29-1.23-1.8-1.23-1.8l3.03.59c2.74,2.1,5.18,5.7,8.23,6.27,1.23,1.8,2.73,2.1,2.73,2.1q.32-1.5-.94-3.33c-1.21-1.8-5.16-5.7-6.68-5.97,0,0-1.21-1.82.27-1.55l3.04.61c8.49,4.76,16.72,11.05,21.31,19.78,2.15,5.13,2.51,11.49.99,11.2M1424.08,2418.65c-1.8,1.24-8.12,1.58-16.67-3.21-7.27-2.96-16.4-12.55-21.58-18.27l-.94-3.33c.3-1.51,1.8-1.21,1.53.3l14,8.95c-.32,1.53,1.19,1.83,1.19,1.83l.29-1.53c-2.44-3.6-5.16-5.69-7.62-9.32-1.51-.3-2.74-2.09-2.74-2.09l3.03.57c1.51.3,8.48,4.79,13.98,8.98l1.51.27.29-1.5c-1.51-.29-5.16-5.72-6.69-6.02q-1.24-1.77-.93-3.3s1.21,1.8,4.24,2.39c4.24,2.37,10.97,8.39,14.63,13.79,3.08,8.44,2.49,11.47,2.49,11.47M1387.51,2380.23l10.6,2.04q1.51.29,1.8-1.23l-1.51-.29c-4.24-2.41-7.28-2.98-10.31-3.55-1.48-.3-3.01-.61-2.73-2.1l3.03.59,10.88.49c1.53.3,1.82-1.19,1.82-1.19,0,0,.29-1.51-1.23-1.82-3.03-.56-6.34.35-9.37-.2-3.03-.59-4.54-.89-4.26-2.41l4.83-.66c12.7-.69,24.79,1.63,34.82,6.69,4.27,2.41,7.92,7.82,7.62,9.32-.27,1.53-5.4,3.67-11.74,4.04-11.19.98-20.27-.76-34.55-8.23-1.5-.29-2.74-2.09-2.74-2.09l3.04.59ZM1378.59,2361.26c-3.62,2.42-9.94,2.78-19.34,2.56l-4.54-.89,1.82-1.21c3.01.59,4.83-.64,6.36-.35.13-.76.59-1.06,1.21-1.33l-2.44-.47c-3.03-.57-8.14,1.56-11.17.98,0,0-1.82,1.23-1.53-.27l.27-1.53,8.48-3.08s1.5.27.27-1.51l-1.8,1.23c-3.04-.59-11.47,2.51-14.79,3.43l-3.31.93q.29-1.51,2.1-2.73c12.35-7.05,20.79-10.14,32.88-7.82,7.86-.07,12.13,2.34,11.83,3.85,1.24,1.82-.87,4.52-6.29,8.23M1378.95,2408.39c-.29,1.53-4.83.64-12.11-2.32-7.28-2.98-14.26-7.43-20.96-13.44-2.74-2.09-2.46-3.6-2.46-3.6l3.04.59,11.52,5.33,1.53.3s.29-1.51-1.24-1.82c.29-1.5-.93-3.3-2.44-3.58l.59-3.04s1.51.29,1.21,1.8c1.53.3,5.77,2.67,8.51,4.79q1.21,1.8,1.5.29c-1.21-1.8-.93-3.33-2.15-5.13-1.5-.3-1.21-1.82-1.21-1.82l3.01.59c3.97,3.9,7.94,7.8,11.62,13.2.91,3.33,1.85,6.66.03,7.86M1330.62,2374.01l3.01.57,10.63,2.04,4.52.87c.27-1.51-1.21-1.8-2.74-2.1-2.74-2.07-7.28-2.96-10.31-3.55-3.01-.59-2.72-2.09-2.72-2.09,0,0,1.8-1.23,3.33-.93l10.88.52c1.51.27,3.3-.94,3.3-.94l-3.01-.57c-1.23-1.82-7.59-1.48-10.6-2.04-3.31.91-3.03-.59-3.03-.59,0,0,.29-1.53,3.3-.93,11.2-1.01,23.3,1.33,32.09,4.59,5.79,2.66,10.97,8.38,10.66,9.89-.59,3.01-5.7,5.16-12.04,5.53-14.21.4-26.06-3.43-34.84-6.69q-2.73-2.09-2.44-3.6M1390.67,2355.71c5.4-3.68,12.04-5.5,19.61-4.07,7.84-.07,12.09,2.32,11.81,3.85,1.51.25-.87,4.54-6.27,8.19-6.95,3.38-15.11,4.95-24.19,3.2l-3.03-.57s1.82-1.23,3.35-.91c1.78-1.24,3.3-.96,6.63-1.88l.29-1.5-1.53-.3s-4.79.64-6.32.34c-1.8,1.23-3.31.94-3.31.94q.27-1.51,1.78-1.23l8.44-3.06,1.82-1.24c.29-1.53-1.23-1.82-1.5-.29-1.55-.3-4.84.64-6.66,1.87-1.97-.4-3.33,0-3.67.4l-.62-.91c.59-.27,2.05-1.92,3.38-2.83M1455.41,2361.86c6.06,1.18,10.29,3.55,11.81,3.85-.3,1.51-2.67,5.79-6.29,8.19-8.43,3.11-18.12,4.39-25.95,4.44q-3.03-.59-2.74-2.09s1.5.27,1.8-1.23c3.01.61,6.36-.34,9.66-1.28l.3-1.53-1.51-.29c-4.54-.86-7.86.07-11.19,1.01l-4.54-.87s1.82-1.23,3.62-2.46l7.4-1.72,2.56-1.08c.29-1.51-1.21-1.8-3.03-.57-4.56-.87-9.39-.25-14.5,1.92-1.53-.29-3.33.93-3.01-.59,0,0,.27-1.51,3.58-2.44,10.26-4.31,18.42-5.9,32.04-3.28M1450.8,2393.94c-4.26-2.35-7.28-2.94-8.8-3.23-1.51-.3-2.72-2.12-2.72-2.12,0,0,1.8-1.21,3.31-.93l9.84,1.9c.77.15,1.65-.47,1.82-1.23-.62-.91-1.21-1.82-2-1.93l-10.6-2.05c-1.33-.27-2.41-1.63-2.64-1.95.24-.2,1.01-.96,3.21-1.08,10.92.54,21.8,1.03,33.04,7.91,5.62,3.45,8.36,5.53,7.64,9.34-.44,2.25-2.71,5.77-10.55,5.82-12.72.69-26.02-3.43-36.05-8.49-3.01-.61-2.74-2.12-2.74-2.12,0,0,1.82-1.23,3.31-.91l13.62,2.59s1.53.3,1.82-1.19l-1.51-.32ZM1472.13,2372.95c11.46-2.52,22.64-3.53,33.24-1.46,7.59,1.45,10.31,3.53,10.01,5.05,1.23,1.8-.87,4.54-7.79,7.92-5.43,3.68-13.31,3.73-26.91,1.11l-4.54-.87c.29-1.51,1.8-1.21,3.31-.94,3.04.59,6.34-.34,9.69-1.26l.29-1.51-1.51-.3c-3.04-.59-7.87.05-9.39-.22-1.82,1.21-3.31.94-3.03-.59,0,0,1.51.29,1.8-1.21l8.14-1.58c1.53.29,1.83-1.23,1.83-1.23l-3.04-.57c-3.03-.57-7.86.03-11.19.98-3.3.94-4.83.66-4.83.66q.29-1.51,3.92-3.95M1506.53,2406.24c-2.73-2.09-5.77-2.69-8.8-3.28-3.01-.57-2.74-2.07-2.74-2.07,0,0,1.83-1.23,3.33-.93l10.6,2.04c1.51.27,1.78-1.24,1.78-1.24l-1.21-1.8-10.6-2.04c-3.03-.59-4.52-.87-4.24-2.41,0,0,1.51.3,4.84-.61,9.37.22,21.48,2.54,29.98,7.32,5.77,2.67,10.95,8.39,10.66,9.89-.29,1.51-6,6.71-13.86,6.75-12.4-.79-25.75-4.93-34.23-9.71-1.23-1.8-2.74-2.09-2.74-2.09.29-1.53,1.8-1.24,4.81-.66,3.06.61,7.28,2.98,12.13,2.32q1.51.32,1.8-1.21l-1.51-.29ZM1523.91,2381.31c9.94-2.81,25.35-1.4,32.65,1.56,5.75,2.67,6.68,6.01,6.68,6.01-.29,1.51-2.37,4.24-7.49,6.41-8.46,3.08-22.37,1.98-29.94.52-1.51-.29-2.73-2.1-2.73-2.1l1.78-1.21c4.56.87,9.1,1.75,10.9.52,1.53.3,1.82-1.23,1.82-1.23l-3.04-.57-7.57-1.46-3.04-.59c.3-1.5,1.98-1.97,3.62-2.44l7.87-.05,1.82-1.23c.29-1.51-1.23-1.82-2.74-2.09-1.53-.3-7.86.05-11.19.98-1.51-.3-3.03-.59-2.74-2.09,0,0,1.8-1.23,3.35-.94M1587.02,2412.28c7,4.49,9.13,9.6,8.83,11.12-.29,1.51-4.17,5.48-13.84,6.76-9.37-.24-23.01-2.86-33.02-7.91-2.74-2.1-2.46-3.6-2.46-3.6l3.03.57c3.04.57,10.33,3.55,13.64,2.61q1.5.3,1.8-1.23s-1.51-.27-1.23-1.8c-3.04-.59-7.57-1.45-8.8-3.26l-1.51-.29q.3-1.51,1.82-1.24l9.08,1.77c1.78-1.23,3.33-.93,3.33-.93q.29-1.53-1.24-1.8c-5.74-2.69-10.31-3.57-13.32-4.14-1.53-.29-3.03-.57-2.74-2.1-1.51-.3,3.33-.93,4.83-.66,11.19-.98,23.28,1.36,31.81,6.12M1572.05,2392.12c8.43-3.06,16.01-1.61,23.58-.17,6.04,1.16,10.03,5.06,10.03,5.06-.3,1.53-2.69,5.77-7.82,7.91-6.64,1.88-14.79,3.45-23.58.2-1.51-.3-3.03-.59-2.74-2.12l1.53.3c3.03.57,7.86-.05,9.37.24,1.82-1.19,3.31-.93,3.31-.93.3-1.51-1.21-1.8-1.21-1.8-1.51-.3-7.86.05-9.39-.24l-1.23-1.8s.15-.77,1.8-1.23l4.71.1,4.21-1.56-4.37-1.6c-1.53-.3-5.45-.27-8.49-.86-1.8,1.23-3.33.96-3.33.96.32-1.53,1.8-1.23,3.63-2.47M1609.02,2403.97c8.16-1.6,17.81-2.86,26.9-1.11,6.06,1.13,8.65,4,8.23,6.26-.3,1.55-.91,4.56-6.29,8.23-5.43,3.67-14.5,1.92-22.37,1.98-1.51-.29-3.01-.59-2.74-2.1l1.53.3c4.83-.64,7.86-.07,9.66-1.28,1.51.29,3.31-.94,1.83-1.24l-1.23-1.8c-3.04-.57-9.4-.24-12.43-.81l-3.01-.57c.29-1.53,2.56-1.08,4.19-1.55l9.07-2.19c1.67-.45,3.31-.94,1.82-1.23l-1.51-.3c-4.56-.86-7.87.1-12.43-.79-1.77,1.21-3.3.93-3.3.93q.3-1.51,2.1-2.73M1648.74,2417.86c6.63-1.87,14.21-.4,19.97,2.27,4.26,2.37,6.69,6.01,6.69,6.01-.3,1.51-3.89,3.94-10.53,5.8-4.83.66-13.93-1.09-18.15-3.48-2.76-2.1-4.26-2.39-3.97-3.9l3.03.57,6.36-.35c1.5.3,3.31-.91,3.31-.91,0,0-1.24-1.8-2.78-2.1l-4.51-.87c-1.53-.3-3.04-.57-2.76-2.09l3.33-.94ZM1319.38,2367.13c.35,6.34-2.62,13.62-5.01,17.88-3.95-3.89-6.11-9.03-8.85-11.1-46.48,1.95-205.42,35.09-352.36,68.16-7.06-1.63-14.23-3.26-21.41-4.91,158.37-36.05,330.01-70.83,373.42-69.62,2.67-5.77,6.86-11.22,8.97-13.98,3.97,3.9,6.12,9.03,5.25,13.57M1172.55,2502.62l-12.88,4.51c-26.8-7.6-119.33-30.09-225.92-54.45.02,0,.02-.02.05-.02l-2.37-.52c-157.8-36.06-345.54-76.08-396.74-78.23-2.74,2.07-4.88,7.22-8.85,11.1-2.37-4.26-5.35-11.54-5-17.88-.87-4.54,1.28-9.67,5.23-13.57,2.1,2.76,6.29,8.21,8.97,13.98,44.49-1.24,223.53,35.32,385.05,72.3l-.02.02,7.2,1.63c103.31,23.73,198.52,47.4,245.28,61.14M680.39,2507.18l-12.87-4.51c42.49-12.5,125.16-33.24,217.61-54.77,7.13,1.6,14.21,3.18,21.31,4.78-106.78,24.42-199.45,46.91-226.06,54.5M507.15,2377.61c-8.8,3.26-20.62,7.1-34.84,6.69-6.32-.37-11.46-2.52-12.04-5.53-.3-1.51,4.89-7.23,10.66-9.89,8.78-3.26,20.89-5.6,32.08-4.59,3.03-.61,3.31.93,3.31.93,0,0,.29,1.5-3.01.59-3.04.56-9.39.22-10.61,2.04l-3.01.57s1.8,1.21,3.3.94l10.9-.52c1.51-.3,3.33.93,3.33.93,0,0,.29,1.5-2.76,2.09-3.01.59-7.55,1.48-10.29,3.55-1.51.3-3.03.59-2.73,2.1l4.52-.87,10.6-2.04,3.04-.57q.29,1.51-2.46,3.6M494.35,2392.63c-6.71,6-13.69,10.46-20.98,13.44-7.28,2.96-11.81,3.85-12.09,2.32-1.82-1.19-.89-4.52.03-7.86,3.67-5.4,7.64-9.3,11.59-13.2l3.04-.59s.29,1.51-1.23,1.82c-1.23,1.8-.93,3.33-2.15,5.13q.3,1.51,1.5-.29c2.74-2.12,7-4.49,8.51-4.79-.3-1.51,1.23-1.8,1.23-1.8l.57,3.04c-1.51.29-2.73,2.09-2.42,3.58-1.53.3-1.24,1.82-1.24,1.82l1.53-.3,11.52-5.33,3.03-.59s.29,1.51-2.44,3.6M455.33,2353.03c-.29-1.51,3.95-3.92,11.83-3.85,12.11-2.32,20.56.77,32.9,7.82q1.8,1.21,2.1,2.73l-3.35-.93c-3.28-.93-11.72-4.02-14.77-3.43l-1.8-1.23c-1.23,1.78.29,1.51.29,1.51l8.44,3.08.29,1.53c.29,1.5-1.51.27-1.51.27-3.03.59-8.16-1.55-11.19-.98l-2.44.47c.64.27,1.09.57,1.23,1.33,1.5-.29,3.31.94,6.34.35l1.8,1.21-4.52.89c-9.4.22-15.74-.13-19.33-2.56-5.43-3.7-7.52-6.41-6.31-8.23M452.99,2381.73c-14.26,7.47-23.35,9.2-34.53,8.23-6.34-.37-11.46-2.51-11.74-4.04-.3-1.5,3.36-6.91,7.62-9.32,10.01-5.06,22.14-7.38,34.82-6.69l4.84.66c.29,1.51-1.23,1.82-4.27,2.41-3.01.56-6.32-.35-9.35.2-1.53.3-1.24,1.82-1.24,1.82,0,0,.29,1.5,1.82,1.19l10.88-.49,3.04-.59c.29,1.5-1.23,1.8-2.76,2.1-3.01.57-6.04,1.14-10.28,3.55l-1.55.29q.3,1.51,1.83,1.23l10.58-2.04,3.03-.59s-1.23,1.8-2.74,2.09M454.38,2397.17c-5.18,5.72-14.31,15.31-21.6,18.27-8.51,4.79-14.84,4.46-16.65,3.21,0,0-.57-3.03,2.51-11.47,3.68-5.4,10.36-11.42,14.62-13.79,3.03-.59,4.24-2.39,4.24-2.39q.29,1.53-.91,3.3c-1.53.3-5.2,5.74-6.71,6.02l.3,1.5,1.5-.27c5.48-4.19,12.48-8.68,13.98-8.98l3.03-.57s-1.23,1.78-2.72,2.09c-2.46,3.63-5.2,5.72-7.64,9.32l.3,1.53s1.5-.3,1.21-1.83l13.98-8.95c-.29-1.51,1.23-1.82,1.51-.3l-.94,3.33ZM412.3,2406.83c-5.84,10.55-16.5,20.44-29.54,26.09-5.77,2.67-11.83,3.85-12.11,2.34-1.51.29-1.16-6.07.99-11.2,4.61-8.73,12.82-15.02,21.33-19.78l3.03-.61c1.5-.27.29,1.55.29,1.55-1.53.27-5.48,4.17-6.71,5.97q-1.23,1.83-.93,3.33s1.53-.3,2.73-2.1c3.04-.57,5.5-4.17,8.23-6.27l3.03-.59s.3,1.51-1.23,1.8c-1.21,1.8-3.65,5.43-3.36,6.95q-1.24,1.8.29,1.51c.29,1.5,1.51-.32,1.51-.32l10.66-9.89q2.71-2.1,4.24-2.37c.29,1.5-1.23,1.82-2.44,3.6M344.63,2438.67c-7.27,2.96-11.83,3.85-12.11,2.32-1.8-1.21-.87-4.52.98-11.17,3.1-8.44,12.53-16.55,19.51-21.01,3.03-.57,4.26-2.39,6.07-1.18,0,0-1.24,1.82-2.74,2.09-2.74,2.12-3.97,3.94-5.18,5.72.27,1.51-.94,3.31-.94,3.31l3.04-.59c2.73-2.09,3.95-3.89,6.68-5.99l1.53-.29s.29,1.51-.94,3.31c-1.51.29-1.21,1.8-2.46,3.62q-1.21,1.82-.91,3.33l3.01-.59,7.92-7.8,3.03-.59s.3,1.51-.93,3.31c-4.61,8.73-12.23,18.05-25.57,22.19M301.01,2448.63c-6.07,1.16-12.11,2.32-12.41.81-1.51.29-.87-4.52,1.28-9.67,3.11-8.44,9.81-14.43,18.28-19.19l1.51-.32c1.82,1.24.29,1.51-.93,3.33-1.51.3-5.18,5.7-6.41,7.52.29,1.53-1.21,1.8-1.21,1.8q1.8,1.21,3.03-.59c2.72-2.09,5.47-4.19,9.72-6.58l3.03-.57-1.23,1.78c-2.74,2.14-5.18,5.72-6.41,7.52l-1.21,1.82c1.8,1.21,3.31.94,4.54-.87l15.48-9.25c1.23-1.82,2.74-2.1,4.26-2.39,0,0-1.21,1.8-.93,3.33-6.41,7.5-18.59,17.68-30.4,21.53M286.9,2432.48c-5.8,10.56-13.44,19.87-29.79,24.58-8.8,3.26-13.64,2.62-15.16,2.93-.29-1.51-1.16-6.06,1.01-11.19,3.36-6.93,10.34-11.42,17.34-15.91l3.03-.57-1.23,1.8c-2.72,2.09-5.18,5.72-5.18,5.72l-1.23,1.8,3.04-.57c3.01-.57,6.98-4.49,9.71-6.59,1.51-.29,2.76-2.09,3.03-.59,0,0,.3,1.53-1.21,1.82-1.23,1.8-3.67,5.42-4.89,7.22-1.23,1.8-.94,3.31-.94,3.31,0,0,2.14-1.19,2.74-2.09l17.96-12.88c1.19-1.78,2.71-2.07,2.71-2.07,0,0,.3,1.51-.94,3.3M206.09,2444.87c-6.34-.34-12.04-5.53-12.35-7.03,0,0,2.15-5.11,7.92-7.82,10.01-5.05,16.08-6.22,28.48-7.03,4.83.64,6.63,1.87,6.63,1.87,0,0-1.21,1.8-4.52.86l-10.61,2.07q-1.51.25-1.21,1.8l1.8,1.21,12.13-2.34c1.51-.27,3.31.96,3.31.96.29,1.48-1.23,1.8-2.74,2.09-3.03.59-7.57,1.46-11.83,3.85-1.51.25-3.03.56-2.72,2.07,0,0,1.8,1.24,3.31.94l13.62-2.62c2.72-2.1,4.24-2.37,4.52-.87,0,0-1.21,1.82-4.24,2.41-9.74,6.58-18.81,8.29-31.51,7.6M231.76,2447.8c-8.85,11.12-18.57,17.7-28.86,21.24-4.58.87-12.13,2.34-12.43.82-1.48.27-.86-4.56.08-7.86,3.36-6.95,8.85-11.15,13.09-13.54l4.54-.87s.3,1.55-1.21,1.82c-2.74,2.09-4.26,2.39-5.47,4.21-1.51.3-1.23,1.82.29,1.51l1.5-.29,10.03-5.08c1.23-1.8,2.74-2.07,2.74-2.07q.29,1.5-.93,3.3c-1.23,1.8-3.97,3.9-5.18,5.69l-1.23,1.82,4.56-.87c5.47-4.19,11.22-6.85,16.7-11.05,1.21-1.8,2.44-3.62,4.26-2.39,0,0-1.23,1.8-2.47,3.62M158.22,2457.22c-7.86-.07-11.46-2.51-11.74-4.02,0,0,2.14-5.11,6.39-7.5,7.91-7.82,15.48-9.27,24.86-9.5,1.51-.3,4.84.64,4.84.64,0,0-1.23,1.82-2.74,2.1-3.33-.93-9.1,1.75-12.11,2.34q-1.51.29-1.23,1.8l1.51-.29c3.33.94,7.86.07,12.41-.82,0,0,1.5-.29,1.78,1.23l-1.5.29c-2.74,2.09-5.77,2.69-10.31,3.57l-1.21,1.78s1.78,1.24,3.31.94l16.65-3.2,3.03-.59s.29,1.51-2.74,2.1c-9.72,6.58-20.34,8.6-31.22,9.13M171.51,2420.13c5.77-2.67,13.34-4.14,19.97-2.27l3.33.94c.29,1.51-1.23,1.78-2.74,2.09l-4.54.87c-1.51.3-2.74,2.1-2.74,2.1,0,0,1.8,1.21,3.33.91l6.34.35,3.03-.57c.29,1.51-1.23,1.8-3.97,3.9-4.24,2.39-13.32,4.14-18.17,3.48-6.63-1.87-10.23-4.29-10.53-5.8,0,0,2.44-3.63,6.69-6.01M204.29,2402.86c9.08-1.75,18.76-.49,26.9,1.11q1.82,1.21,2.1,2.73s-1.53.29-3.3-.93c-4.56.89-7.87-.07-12.41.79l-1.53.3c-1.51.29.15.77,1.82,1.23l9.05,2.19c1.65.47,3.94.02,4.22,1.55l-3.03.57c-3.03.57-9.37.24-12.41.81l-1.23,1.8c-1.5.3.3,1.53,1.8,1.24,1.82,1.21,4.84.64,9.67,1.28l1.53-.3c.29,1.51-1.24,1.82-2.72,2.1-7.89-.07-16.97,1.68-22.37-1.98-5.4-3.67-6.01-6.68-6.29-8.23-.44-2.25,2.15-5.13,8.21-6.26M244.58,2391.96c7.57-1.45,15.16-2.89,23.6.17,1.82,1.24,3.3.94,3.6,2.47,0,0-1.5.27-3.31-.96-3.03.59-6.96.56-8.48.86l-4.39,1.6,4.22,1.56,4.69-.1c1.67.45,1.8,1.23,1.8,1.23l-1.23,1.8c-1.51.29-7.87-.07-9.37.24,0,0-1.53.29-1.23,1.8,0,0,1.51-.27,3.31.93,1.51-.29,6.34.34,9.39-.24l1.51-.3c.29,1.53-1.23,1.82-2.74,2.12-8.8,3.25-16.96,1.68-23.58-.2-5.11-2.14-7.52-6.38-7.8-7.91,0,0,3.97-3.9,10.01-5.06M285,2406.15c1.51-.27,6.36.35,4.84.66.27,1.53-1.23,1.82-2.76,2.1-3.01.57-7.57,1.45-13.32,4.14q-1.51.27-1.23,1.8s1.53-.3,3.33.93l9.08-1.77q1.5-.27,1.8,1.24l-1.51.29c-1.23,1.82-5.77,2.67-8.8,3.26.29,1.53-1.21,1.8-1.21,1.8q.29,1.53,1.8,1.23c3.33.94,10.6-2.04,13.64-2.61l3.01-.57s.29,1.5-2.44,3.6c-10.03,5.05-23.67,7.67-33.04,7.91-9.67-1.28-13.54-5.25-13.86-6.76-.29-1.51,1.87-6.63,8.86-11.12,8.49-4.76,20.62-7.1,31.79-6.12M283.67,2382.87c7.28-2.96,22.71-4.37,32.67-1.56,1.51-.29,3.31.94,3.31.94.3,1.5-1.23,1.78-2.74,2.09-3.31-.93-9.67-1.28-11.19-.98-1.5.27-3.01.57-2.71,2.09l1.78,1.23,7.87.05c1.65.47,3.31.94,3.62,2.44l-3.04.59-7.55,1.46-3.04.57s.3,1.53,1.82,1.23c1.8,1.23,6.34.35,10.87-.52l1.83,1.21s-1.23,1.82-2.74,2.1c-7.57,1.46-21.5,2.56-29.94-.52-5.13-2.17-7.22-4.89-7.5-6.41,0,0,.91-3.33,6.69-6.01M331.29,2402l10.6-2.04c1.51-.3,3.33.93,3.33.93,0,0,.29,1.5-2.74,2.07-3.04.59-6.06,1.19-8.8,3.28l-1.51.29q.29,1.53,1.8,1.21c4.84.66,9.08-1.72,12.11-2.32,3.03-.59,4.54-.87,4.83.66,0,0-1.5.29-2.73,2.09-8.49,4.78-21.83,8.92-34.23,9.71-7.86-.03-13.57-5.23-13.86-6.75-.3-1.5,4.88-7.22,10.66-9.89,8.48-4.78,20.61-7.1,29.97-7.32,3.33.91,4.83.61,4.83.61.29,1.53-1.21,1.82-4.24,2.41l-10.6,2.04-1.21,1.8s.29,1.51,1.78,1.24M324.83,2376.53c-.29-1.51,2.46-3.6,10.01-5.05,10.61-2.07,21.78-1.06,33.25,1.46q3.62,2.44,3.92,3.95s-1.53.29-4.84-.66c-3.31-.94-8.16-1.55-11.17-.98l-3.04.57s.3,1.51,1.82,1.23l8.14,1.58c.3,1.5,1.82,1.21,1.82,1.21.29,1.53-1.23,1.8-3.04.59-1.51.27-6.34-.37-9.37.22l-1.51.3.29,1.51c3.33.93,6.64,1.85,9.66,1.26,1.53-.27,3.04-.57,3.33.94l-4.54.87c-13.63,2.62-21.48,2.57-26.91-1.11-6.91-3.38-9-6.12-7.79-7.92M387.77,2389.57l9.84-1.9c1.51-.29,3.33.93,3.33.93,0,0-1.23,1.82-2.73,2.12-1.53.29-4.56.87-8.81,3.23l-1.51.32c.29,1.5,1.82,1.19,1.82,1.19l13.61-2.59c1.53-.32,3.33.91,3.33.91,0,0,.3,1.51-2.74,2.12-10.03,5.06-23.35,9.18-36.05,8.49-7.86-.05-10.09-3.57-10.53-5.82-.72-3.8,2-5.89,7.62-9.34,11.25-6.88,22.14-7.37,33.04-7.91,2.2.12,2.96.87,3.21,1.08-.24.32-1.31,1.68-2.64,1.95l-10.6,2.05c-.77.12-1.38,1.03-1.98,1.93.15.76,1.04,1.38,1.8,1.23M384.81,2361.86c13.62-2.62,21.77-1.03,32.01,3.28,3.33.93,3.63,2.44,3.63,2.44.29,1.51-1.51.3-3.04.59-5.11-2.17-9.96-2.79-14.48-1.92-1.82-1.23-3.33-.94-3.04.57l2.57,1.08,7.4,1.72c1.78,1.23,3.6,2.46,3.6,2.46l-4.54.87c-3.31-.94-6.64-1.87-11.17-1.01l-1.53.29.3,1.53c3.31.94,6.63,1.88,9.66,1.28.29,1.5,1.82,1.23,1.82,1.23q.29,1.5-2.74,2.09c-7.87-.05-17.53-1.33-25.97-4.44-3.62-2.41-5.99-6.68-6.29-8.19,1.51-.3,5.75-2.67,11.83-3.85M418.12,2355.49c-.29-1.53,3.95-3.92,11.83-3.85,7.57-1.43,14.21.39,19.61,4.07,1.33.91,2.78,2.56,3.36,2.83l-.62.91c-.35-.4-1.68-.81-3.67-.4-1.8-1.23-5.11-2.17-6.64-1.87-.29-1.53-1.8-1.24-1.51.29l1.82,1.24,8.44,3.06q1.51-.29,1.8,1.23s-1.5.29-3.31-.94c-1.51.3-6.36-.34-6.36-.34l-1.51.3.3,1.5c3.33.93,4.83.64,6.63,1.88,1.51-.32,3.33.91,3.33.91l-3.03.57c-9.1,1.75-17.24.18-24.17-3.2-5.42-3.65-7.8-7.94-6.29-8.19M1711.23,2443.98l88.11,15.37c6.04,1.18,9.07,1.75,9.35.22.59-3.03-2.14-5.11-6.68-5.97l-104.76-18.6c-10.6-2.02-14.85-4.39-14.28-7.4.3-1.53,5.15-2.19,12.72-.71l95.02,11.98c6.06,1.14,9.37.24,9.66-1.3.29-1.5-2.44-3.6-10.01-5.05l-111.69-15.21c-15.42-1.38-22.71-4.36-23.63-7.69.57-2.99,5.7-5.16,11.76-4l106.21,11c4.83-.66,9.67-1.3,9.96-2.81,0,0-5.75-2.67-11.81-3.84l-124.69-12.97c-17.22-.19-61.13-8.63-84.91-15.56l.29-1.51,93.32,4.61c7.86-.07,12.7-.69,12.99-2.22-1.23-1.8-5.5-4.19-13.32-4.14l-113.76-4.58c-15.14-2.93-54.79-8.95-75.96-13.04l.27-1.5,104.93,1.31c7.87-.07,12.7-.71,11.49-2.49.29-1.53-4.27-2.41-15.16-2.93l-106.73-.1c-12.4-.81-24.83-1.63-33.74-4.12l.29-1.53,65.43-5.48c3.31-.91,5.11-2.14,5.4-3.67l-7.55-1.45-70.11,5.38c-14.52,1.9-37.83.57-51.71-.52-15.44-1.4-37.46,6.91-44.04,16.65-1.87-6.64-6.75-13.84-10.71-17.76-2.67,5.77-7.45,14.28-11.35,18.23-39.31-.24-219.29,37.09-381.7,73.89-162.39-36.8-342.34-74.13-381.67-73.89-3.89-3.95-8.68-12.46-11.34-18.23-3.99,3.92-8.86,11.12-10.73,17.76-6.58-9.74-28.58-18.05-44.02-16.65-13.91,1.09-37.21,2.42-51.71.52l-70.11-5.38-7.57,1.45c.29,1.53,2.09,2.76,5.42,3.67l65.42,5.48.29,1.53c-8.93,2.49-21.31,3.31-33.74,4.12l-106.73.1c-10.88.52-15.44,1.4-15.14,2.93-1.23,1.78,3.62,2.42,11.47,2.49l104.93-1.31.3,1.5c-21.19,4.09-60.86,10.11-76,13.04l-113.74,4.58c-7.84-.05-12.11,2.34-13.32,4.14.3,1.53,5.11,2.15,12.97,2.22l93.34-4.61.29,1.51c-23.8,6.93-67.7,15.37-84.95,15.56l-124.66,12.97c-6.06,1.16-11.83,3.84-11.83,3.84.29,1.51,5.13,2.15,9.96,2.81l106.21-11c6.07-1.16,11.19,1.01,11.77,4-.94,3.33-8.21,6.31-23.63,7.69l-111.69,15.21c-7.59,1.45-10.31,3.55-10.03,5.05.29,1.53,3.6,2.44,9.66,1.3l95.04-11.98c7.57-1.48,12.4-.82,12.7.71.57,3.01-3.67,5.38-14.26,7.4l-104.76,18.6c-4.54.86-7.28,2.94-6.69,5.97.29,1.53,3.31.96,9.37-.22l88.11-15.37c9.08-1.75,12.41-.79,12.7.71.29,1.53-2.46,3.63-8.51,4.78l-91.77,20.77c-7.55,1.46-8.8,3.26-8.51,4.78.59,3.03,6.64,1.88,12.7.71l81.18-18.74c12.13-2.32,16.67-3.21,18.74-.47.3,1.53-.64,4.84-12.43,8.66l-62.44,18.28c-5.77,2.69-8.51,4.78-8.23,6.29,1.82,1.21,6.66,1.87,10.9-.52l71.2-21.53c23.67-7.67,37.29-10.29,37.86-7.27,2.1,2.73-4.59,8.73-22.19,15.26l-73.68,25.13c-4.26,2.39-5.47,4.19-5.18,5.7.3,1.53,5.13,2.17,10.9-.5l72.16-24.88c13.02-5.63,21.18-4.05,52.99-10.16l.29,1.51-61.9,29.15c-5.79,2.69-9.72,6.58-7.94,7.82.3,1.5,3.31.91,10.61-2.05l68.6-35.17c13.04-5.64,33.66-12.73,71.51-20l.3,1.51-99.83,44.27c-5.75,2.69-6.68,6.02-6.41,7.55.32,1.48,4.84.62,9.1-1.77l106.8-48.78c11.54-5.37,36.99-11.83,52.13-14.72l.29,1.5-90.43,44.07c-7.01,4.49-9.45,8.09-7.64,9.32,0,0,4.83.64,11.81-3.85l97.14-50.06c14.28-7.43,48.51-17.16,71.22-21.53l.3,1.51-89.22,42.27c-5.77,2.67-8.21,6.27-6.41,7.49.29,1.55,7.57-1.45,16.37-4.69,7-4.49,114.74-56.59,126.24-61.93,10.03-5.08,22.78-12.23,28.9-21.24,2.37,4.24,4.76,8.49,8.07,9.42,2.17-5.11,6.12-9.03,11.61-13.2,39.13,2.56,189.37,33.66,334.35,65.85-97.24,22.47-181.92,43.33-216.65,53.59l-1.45,7.6,22.12,7.37c36.48-10.23,134.52-33.61,242.84-58.05,108.06,24.39,205.82,47.69,242.51,57.96l.07.08.12-.03c.05.02.1.02.13.03v-.08l21.87-7.28-.02-.08c.1,0,.2.03.3.08l-1.45-7.6c-34.75-10.26-119.45-31.12-216.67-53.57,144.98-32.21,295.22-63.31,334.35-65.87,5.5,4.17,9.45,8.09,11.61,13.2,3.3-.93,5.7-5.18,8.09-9.42,6.11,9.02,18.87,16.16,28.86,21.24,11.54,5.35,119.28,57.44,126.26,61.93,8.8,3.25,16.08,6.24,16.38,4.69,1.78-1.21-.64-4.81-6.41-7.49l-89.22-42.27.29-1.51c22.71,4.37,56.94,14.1,71.22,21.53l97.14,50.06c7,4.49,11.81,3.85,11.81,3.85,1.82-1.23-.64-4.83-7.64-9.32l-90.43-44.07.29-1.5c15.16,2.89,40.59,9.35,52.13,14.72l106.8,48.78c4.26,2.39,8.8,3.25,9.1,1.77.27-1.53-.64-4.86-6.41-7.55l-99.82-44.27.29-1.51c37.86,7.27,58.49,14.37,71.51,20l68.61,35.17c7.28,2.96,10.31,3.55,10.6,2.05,1.78-1.24-2.17-5.13-7.94-7.82l-61.88-29.15.3-1.51c31.77,6.11,39.92,4.52,52.97,10.16l72.16,24.88c5.77,2.67,10.61,2.04,10.88.5.29-1.51-.93-3.31-5.2-5.7l-73.64-25.13c-17.59-6.53-24.29-12.53-22.2-15.26.59-3.03,14.23-.4,37.86,7.27l71.2,21.53c4.26,2.39,9.1,1.73,10.9.52.3-1.51-2.44-3.6-8.21-6.29l-62.44-18.28c-11.83-3.82-12.73-7.13-12.46-8.66,2.1-2.74,6.64-1.85,18.76.47l81.18,18.74c6.06,1.18,12.11,2.32,12.7-.71.29-1.51-.94-3.31-8.51-4.78l-91.78-20.77c-6.06-1.14-8.8-3.25-8.49-4.78.29-1.5,3.63-2.46,12.7-.71M1364.73,2359.78c-.2.1-.44.17-.64.25l.59.1.05-.35ZM475.53,2360.13l.59-.1c-.2-.08-.44-.15-.64-.25l.05.35ZM473.73,2358.92c.64.44,1.21.66,1.75.86l-.24-1.16-1.51.3Z"/>
</svg>