<?xml version="1.0" encoding="utf-8"?>
<!-- Generator: Adobe Illustrator 28.3.0, SVG Export Plug-In . SVG Version: 6.00 Build 0)  -->
<svg version="1.1" id="Lager_1" xmlns="http://www.w3.org/2000/svg" xmlns:xlink="http://www.w3.org/1999/xlink" x="0px" y="0px"
	 viewBox="0 0 122.89 26" style="enable-background:new 0 0 122.89 26;" xml:space="preserve">
<g>
	<path d="M7.69,10.57c-0.13-0.42-0.28-0.83-0.42-1.24C7.11,8.88,7.11,8.88,6.66,8.88H4.25c-0.4,0-0.4,0-0.52,0.36
		c-0.14,0.38-0.28,0.78-0.41,1.16c-0.02,0.08-0.06,0.17-0.08,0.25c-0.05,0.11-0.12,0.16-0.23,0.17H2.63c-0.36,0.01-0.72,0.01-1.08,0
		c-0.26,0-0.3-0.06-0.22-0.32c0.14-0.44,0.3-0.88,0.44-1.31c0.8-2.34,1.6-4.68,2.4-7.02C4.33,1.74,4.33,1.74,4.8,1.74h0.68h0.88
		C6.56,1.72,6.66,1.82,6.72,2c0.22,0.65,0.44,1.28,0.66,1.92c0.73,2.12,1.45,4.25,2.18,6.37c0.04,0.12,0.07,0.24,0.1,0.36
		c0.02,0.08-0.04,0.16-0.11,0.17c-0.06,0.01-0.11,0.01-0.16,0.01c-0.44,0-0.89,0-1.34,0.01C7.86,10.84,7.75,10.75,7.69,10.57z
		 M5.92,7.04c0.12,0,0.23,0,0.35-0.01C6.38,7.01,6.43,6.94,6.4,6.83c-0.01-0.05-0.02-0.1-0.05-0.14c-0.23-0.7-0.47-1.39-0.71-2.1
		c-0.02-0.07-0.06-0.13-0.1-0.2C5.52,4.33,5.43,4.34,5.4,4.4C5.36,4.47,5.34,4.53,5.31,4.6C5.18,4.97,5.05,5.34,4.93,5.73L4.57,6.77
		c-0.05,0.17,0,0.25,0.18,0.25c0.24,0.01,0.48,0,0.72,0v0.01H5.92z"/>
	<path d="M14.41,10.81c-0.19,0-0.24-0.06-0.25-0.25c-0.01-0.12,0-0.23,0-0.35V6.28c0-1.34,0-2.67,0-4.02c0-0.11-0.01-0.23,0-0.34
		c0.01-0.13,0.07-0.18,0.2-0.19c0.08-0.01,0.18-0.01,0.26-0.01c1.02,0,2.04,0.01,3.06,0c1.51-0.04,2.87,1.21,2.85,2.87
		c-0.01,1.03-0.41,1.85-1.26,2.45c-0.48,0.34-1.03,0.47-1.62,0.48h-1.15c-0.1,0-0.2,0-0.3,0.01c-0.16,0.01-0.2,0.07-0.22,0.22
		c-0.01,0.11,0,0.2,0,0.31v2.29c-0.01,0.47-0.01,0.48-0.47,0.48C15.15,10.83,14.78,10.83,14.41,10.81z M17.73,5.66
		c0.36-0.01,0.65-0.19,0.83-0.52c0.37-0.68-0.04-1.51-0.82-1.57c-0.5-0.04-1.01-0.01-1.52,0c-0.17,0-0.22,0.06-0.23,0.23
		c-0.01,0.28,0,0.54,0,0.8c0,0.26-0.01,0.53,0,0.8c0,0.19,0.06,0.25,0.25,0.25C16.74,5.67,17.24,5.67,17.73,5.66z"/>
	<path d="M26.25,10.57c-0.13-0.42-0.28-0.83-0.42-1.24c-0.16-0.46-0.16-0.46-0.61-0.46h-2.41c-0.4,0-0.4,0-0.52,0.36
		c-0.14,0.38-0.28,0.78-0.41,1.16c-0.02,0.08-0.06,0.17-0.08,0.25c-0.05,0.11-0.12,0.16-0.23,0.17h-0.38
		c-0.36,0.01-0.72,0.01-1.08,0c-0.26,0-0.3-0.06-0.22-0.32c0.14-0.44,0.3-0.88,0.44-1.31c0.8-2.34,1.6-4.68,2.4-7.02
		c0.16-0.44,0.16-0.44,0.62-0.44h0.68h0.88c0.2-0.01,0.3,0.08,0.36,0.26c0.22,0.65,0.44,1.28,0.66,1.92
		c0.73,2.12,1.45,4.25,2.18,6.37c0.04,0.12,0.07,0.24,0.1,0.36c0.02,0.08-0.04,0.16-0.11,0.17c-0.06,0.01-0.11,0.01-0.16,0.01
		c-0.44,0-0.89,0-1.34,0.01C26.42,10.84,26.31,10.75,26.25,10.57z M24.49,7.04c0.12,0,0.23,0,0.35-0.01
		c0.11-0.01,0.16-0.08,0.13-0.19c-0.01-0.05-0.02-0.1-0.05-0.14c-0.23-0.7-0.47-1.39-0.71-2.1c-0.02-0.07-0.06-0.13-0.1-0.2
		C24.08,4.33,24,4.34,23.96,4.4c-0.04,0.07-0.06,0.13-0.08,0.2c-0.13,0.37-0.26,0.74-0.38,1.13l-0.36,1.04
		c-0.05,0.17,0,0.25,0.18,0.25c0.24,0.01,0.48,0,0.72,0v0.01H24.49z"/>
	<path d="M28.35,9.21l-0.07-0.23c-0.05-0.2,0-0.28,0.22-0.32c0.42-0.08,0.85-0.16,1.27-0.24c0.2-0.04,0.25-0.01,0.34,0.18
		c0.05,0.12,0.11,0.25,0.2,0.36c0.52,0.66,1.51,0.56,1.88-0.16c0.19-0.41,0.11-0.83-0.24-1.1c-0.16-0.12-0.34-0.23-0.52-0.32
		l-1.03-0.5c-0.31-0.14-0.6-0.32-0.88-0.53c-1.1-0.84-1.22-2.09-0.77-3.08c0.53-1.15,1.48-1.67,2.69-1.71
		c1.2,0.04,2.05,0.56,2.55,1.61c0.17,0.32,0.13,0.38-0.2,0.5C33.43,3.77,33.06,3.89,32.67,4c-0.23,0.07-0.24,0.06-0.37-0.13
		c-0.07-0.1-0.13-0.19-0.23-0.26c-0.53-0.44-1.46-0.14-1.66,0.52c-0.08,0.29-0.02,0.53,0.22,0.72c0.16,0.13,0.34,0.23,0.52,0.32
		c0.4,0.19,0.8,0.38,1.2,0.59c0.35,0.18,0.7,0.38,0.97,0.67c0.84,0.85,1.06,1.85,0.64,2.95c-0.79,2.08-3.31,2.4-4.75,1.12
		C28.81,10.13,28.52,9.71,28.35,9.21z"/>
	<path d="M35.09,9.21l-0.07-0.23c-0.05-0.2,0-0.28,0.22-0.32c0.42-0.08,0.85-0.16,1.27-0.24c0.2-0.04,0.25-0.01,0.34,0.18
		c0.05,0.12,0.11,0.25,0.2,0.36c0.52,0.66,1.51,0.56,1.88-0.16c0.19-0.41,0.11-0.83-0.24-1.1c-0.16-0.12-0.34-0.23-0.52-0.32
		l-1.03-0.5c-0.31-0.14-0.6-0.32-0.88-0.53c-1.1-0.84-1.22-2.09-0.77-3.08c0.53-1.15,1.48-1.67,2.69-1.71
		c1.2,0.04,2.05,0.56,2.55,1.61c0.17,0.32,0.13,0.38-0.2,0.5C40.16,3.77,39.79,3.89,39.4,4c-0.23,0.07-0.24,0.06-0.37-0.13
		c-0.07-0.1-0.13-0.19-0.23-0.26c-0.53-0.44-1.46-0.14-1.66,0.52c-0.08,0.29-0.02,0.53,0.22,0.72c0.16,0.13,0.34,0.23,0.52,0.32
		c0.4,0.19,0.8,0.38,1.2,0.59c0.35,0.18,0.7,0.38,0.97,0.67c0.84,0.85,1.06,1.85,0.64,2.95c-0.79,2.08-3.31,2.4-4.75,1.12
		C35.54,10.13,35.25,9.71,35.09,9.21z"/>
	<path d="M42.25,10.83c-0.22,0-0.26-0.06-0.28-0.28v-0.3c0-2.65,0-5.3,0-7.95c0-0.58-0.02-0.56,0.56-0.56h1
		c0.22,0.01,0.26,0.06,0.28,0.28v0.35c0,1.31,0,2.61,0,3.93v4.04c0,0.49,0,0.49-0.49,0.49C42.97,10.84,42.61,10.84,42.25,10.83z"/>
	<path d="M44.78,6.3c0-2.64,2.21-4.77,4.76-4.71c2.43-0.04,4.7,1.98,4.7,4.74c0,2.6-2.11,4.71-4.73,4.71
		C46.75,11.04,44.77,8.76,44.78,6.3z M52.28,6.34c0.01-1.52-1.22-2.78-2.75-2.79c-1.51-0.01-2.78,1.24-2.79,2.76
		c-0.01,1.5,1.22,2.75,2.73,2.77C51,9.11,52.27,7.86,52.28,6.34z"/>
	<path d="M61.23,10.6c-0.05-0.08-0.11-0.14-0.16-0.22c-1.28-1.71-2.57-3.43-3.86-5.13C57.14,5.14,57.08,5,56.93,4.96
		c-0.16,0.11-0.08,0.28-0.08,0.42c-0.01,1.64,0,3.29,0,4.93c0,0.52-0.01,0.52-0.54,0.52c-0.35,0.01-0.68,0.01-1.03,0
		c-0.2,0-0.25-0.06-0.26-0.25c-0.01-0.1,0-0.2,0-0.3V2.29c0-0.13,0-0.25,0.01-0.38c0-0.08,0.06-0.13,0.14-0.16
		c0.06-0.01,0.12-0.01,0.19-0.01c0.42,0,0.84,0.01,1.26,0c0.22-0.01,0.36,0.06,0.48,0.24c0.06,0.1,0.13,0.19,0.2,0.28l3.95,5.25
		c0.07,0.11,0.16,0.2,0.24,0.3c0.04,0.04,0.12,0.01,0.13-0.04c0.01-0.13,0.02-0.25,0.02-0.38V2.35c0-0.12,0-0.23,0-0.35
		c0.01-0.19,0.06-0.25,0.25-0.26c0.46,0,0.92,0,1.38,0.01c0.14,0,0.2,0.06,0.22,0.2V2.3c0,1.32,0,2.65,0,3.97v4.02
		c0,0.13,0,0.25-0.01,0.38c-0.01,0.08-0.07,0.13-0.16,0.14c-0.06,0.01-0.12,0.01-0.18,0.01c-0.48,0-0.95,0-1.42,0.01
		C61.51,10.84,61.35,10.78,61.23,10.6z"/>
	<path d="M68.78,10.83c-0.13-0.01-0.19-0.07-0.2-0.19v-0.38c-0.01-1.32,0-2.65,0-3.97c0-1.34-0.01-2.67,0-4.02
		c0-0.11-0.01-0.23,0-0.34c0.01-0.13,0.07-0.19,0.19-0.2c0.1-0.01,0.2-0.01,0.3-0.01h4.67c0.49,0,0.49,0.01,0.5,0.48v0.92
		c0,0.07-0.01,0.16-0.01,0.23c-0.01,0.13-0.07,0.19-0.19,0.19c-0.12,0.01-0.23,0.01-0.35,0.01h-2.75c-0.53,0-0.53,0-0.53,0.53v0.96
		c0,0.1,0,0.18,0.01,0.26c0.01,0.08,0.07,0.14,0.16,0.16c0.12,0.01,0.23,0.01,0.35,0.01h1.91c0.37,0,0.4,0.02,0.41,0.38v1.07
		c0,0.07-0.01,0.16-0.02,0.23c-0.01,0.08-0.06,0.14-0.14,0.16c-0.12,0.01-0.23,0.01-0.35,0.01h-1.87c-0.43,0-0.44,0.02-0.44,0.46
		v2.48c0,0.12,0,0.24-0.01,0.35c-0.01,0.17-0.06,0.23-0.24,0.23c-0.34,0.01-0.66,0-1,0C69.03,10.83,68.91,10.84,68.78,10.83z"/>
	<path d="M74.37,6.3c0-2.64,2.21-4.77,4.76-4.71c2.43-0.04,4.7,1.98,4.7,4.74c0,2.6-2.11,4.71-4.73,4.71
		C76.34,11.04,74.36,8.76,74.37,6.3z M81.87,6.34c0.01-1.52-1.22-2.78-2.75-2.79c-1.51-0.01-2.78,1.24-2.79,2.76
		c-0.01,1.5,1.22,2.75,2.73,2.77C80.59,9.11,81.86,7.86,81.87,6.34z"/>
	<path d="M89.61,10.83c-0.42,0-0.42-0.01-0.59-0.41l-0.97-2.45c-0.19-0.48-0.18-0.46-0.66-0.46h-0.58
		c-0.36,0.01-0.38,0.04-0.38,0.41c-0.01,0.08,0,0.18,0,0.26v2.18c-0.01,0.43-0.02,0.44-0.46,0.46c-0.36,0-0.73,0-1.1-0.01
		c-0.22,0-0.26-0.05-0.28-0.28c-0.01-0.11,0-0.23,0-0.34V6.26c0-1.34-0.01-2.7,0-4.04c0-0.49,0-0.49,0.49-0.49
		c1.02,0,2.04,0.01,3.06,0c1.4-0.04,2.81,1.12,2.83,2.81c0.01,0.95-0.31,1.74-1.06,2.35l-0.11,0.1c-0.07,0.07-0.1,0.16-0.06,0.25
		l0.11,0.29c0.38,0.95,0.77,1.91,1.16,2.87c0.17,0.4,0.13,0.44-0.31,0.44C90.34,10.81,89.98,10.83,89.61,10.83z M88.18,5.66
		c0.56-0.04,0.92-0.44,0.94-1.01V4.46c-0.06-0.42-0.29-0.7-0.68-0.84c-0.13-0.05-0.28-0.06-0.41-0.06h-0.61h-0.73
		c-0.19,0.01-0.25,0.07-0.25,0.25v1.61c0,0.17,0.06,0.24,0.23,0.24C87.16,5.67,87.68,5.68,88.18,5.66z"/>
	<path d="M103,10.83c-0.19,0-0.24-0.05-0.3-0.23c-0.08-0.31-0.16-0.62-0.23-0.94c-0.26-1.12-0.54-2.22-0.8-3.33
		c-0.04-0.12-0.04-0.23-0.11-0.32c-0.01-0.02-0.04-0.04-0.06-0.04c-0.02,0-0.06,0.01-0.06,0.04c-0.05,0.12-0.08,0.24-0.12,0.36
		c-0.25,1.07-0.52,2.12-0.77,3.19c-0.08,0.34-0.16,0.67-0.25,1.01c-0.06,0.23-0.1,0.26-0.35,0.26c-0.55,0.01-1.12,0.01-1.68,0
		c-0.28,0-0.31-0.04-0.38-0.32l-0.43-1.74c-0.53-2.15-1.05-4.31-1.59-6.45c-0.14-0.58-0.14-0.59,0.44-0.58h0.84
		c0.07,0,0.14,0,0.23,0c0.28,0.01,0.3,0.02,0.37,0.28c0.04,0.13,0.06,0.25,0.1,0.37c0.36,1.51,0.73,3.02,1.1,4.53
		c0.02,0.14,0,0.31,0.18,0.38c0.13-0.1,0.12-0.24,0.16-0.37c0.38-1.57,0.76-3.14,1.14-4.71c0.11-0.48,0.11-0.48,0.61-0.48h1.07
		c0.35,0,0.36,0.01,0.44,0.34l0.5,2.09c0.23,0.94,0.46,1.88,0.68,2.82c0.02,0.1,0.06,0.19,0.1,0.29c0.01,0.02,0.04,0.04,0.06,0.04
		c0.02,0,0.06-0.01,0.06-0.04c0.04-0.11,0.08-0.22,0.11-0.32c0.38-1.57,0.77-3.14,1.14-4.71c0.12-0.52,0.13-0.49,0.64-0.49h0.92
		c0.08,0,0.18,0,0.26,0.01c0.08,0.02,0.13,0.08,0.12,0.17c0,0.1-0.02,0.18-0.05,0.26c-0.66,2.75-1.31,5.5-1.97,8.25
		c-0.1,0.4-0.11,0.4-0.52,0.4c-0.24,0.01-0.49,0-0.73,0C103.59,10.83,103.29,10.84,103,10.83z"/>
	<path d="M108.33,10.83c-0.13,0-0.25,0-0.38-0.01c-0.08-0.01-0.13-0.07-0.14-0.16c-0.01-0.12-0.01-0.25-0.01-0.37
		c-0.01-1.34,0-2.67,0-4.02s-0.01-2.67,0-4.02c0-0.52,0-0.52,0.53-0.52h4.79c0.52,0,0.52,0,0.52,0.5v1.07
		c-0.01,0.19-0.07,0.24-0.26,0.25c-0.1,0.01-0.2,0.01-0.3,0.01h-2.95c-0.48,0-0.48,0-0.48,0.49v0.73c0,0.52,0,0.52,0.54,0.52H112
		c0.08,0,0.18,0,0.26,0c0.05,0,0.11,0,0.16,0.01c0.08,0.02,0.13,0.07,0.14,0.16c0.01,0.05,0.01,0.1,0.01,0.16
		c0.01,0.41,0.01,0.82,0,1.22c0,0.25-0.05,0.3-0.32,0.3c-0.67,0.01-1.34,0-2.03,0c-0.11,0-0.23,0-0.34,0.01
		c-0.19,0.01-0.26,0.06-0.26,0.25v1.31c0.01,0.18,0.07,0.24,0.26,0.25h0.31c0.97,0,1.96,0,2.94,0c0.47,0,0.48,0.01,0.48,0.47v1.1
		c-0.01,0.22-0.06,0.26-0.28,0.28c-0.1,0.01-0.18,0-0.28,0C111.5,10.83,109.92,10.84,108.33,10.83z"/>
	<path d="M114.9,10.83c-0.25-0.01-0.29-0.06-0.3-0.32c-0.01-0.11,0-0.2,0-0.31V6.26c0-1.33,0-2.65,0-3.97c0-0.56,0-0.56,0.53-0.56
		h3.44c1.06,0.01,2,0.65,2.39,1.62c0.28,0.73,0.28,1.48-0.05,2.19c-0.19,0.44-0.2,0.37,0.1,0.73c1.04,1.28,0.78,3.72-1.29,4.43
		c-0.29,0.08-0.58,0.13-0.86,0.13h-3.83H114.9z M118.52,5.24c0.28-0.01,0.5-0.14,0.66-0.38c0.31-0.54,0.01-1.19-0.6-1.28
		c-0.11-0.01-0.2-0.01-0.31-0.01h-1.37c-0.08,0-0.16,0-0.23,0c-0.17,0.02-0.24,0.07-0.24,0.24c-0.01,0.4-0.01,0.79,0,1.19
		c0,0.19,0.06,0.24,0.25,0.25c0.31,0.01,0.61,0,0.91,0C117.91,5.24,118.21,5.25,118.52,5.24z M118.77,8.97
		c0.64-0.01,1-0.4,0.96-1.02c-0.02-0.42-0.29-0.74-0.71-0.84c-0.13-0.02-0.28-0.02-0.41-0.04h-1.73c-0.07,0-0.14,0-0.23,0.01
		c-0.17,0.01-0.23,0.07-0.23,0.24c-0.01,0.46-0.01,0.91,0,1.37c0,0.22,0.06,0.28,0.28,0.28c0.37,0.01,0.74,0,1.1,0
		C118.14,8.97,118.45,8.98,118.77,8.97z"/>
	<path d="M7.69,23.97c-0.13-0.42-0.28-0.83-0.42-1.23c-0.16-0.46-0.16-0.46-0.61-0.46H4.25c-0.4,0-0.4,0-0.52,0.36
		c-0.14,0.38-0.28,0.78-0.41,1.16c-0.02,0.08-0.06,0.17-0.08,0.25c-0.05,0.11-0.12,0.16-0.23,0.17H2.63c-0.36,0.01-0.72,0.01-1.08,0
		c-0.26,0-0.3-0.06-0.22-0.32c0.14-0.44,0.3-0.88,0.44-1.31c0.8-2.34,1.6-4.68,2.4-7.02c0.16-0.44,0.16-0.44,0.62-0.44h0.68h0.88
		c0.2-0.01,0.3,0.08,0.36,0.26c0.22,0.65,0.44,1.28,0.66,1.92c0.73,2.12,1.45,4.25,2.18,6.37c0.04,0.12,0.07,0.24,0.1,0.36
		c0.02,0.08-0.04,0.16-0.11,0.17c-0.06,0.01-0.11,0.01-0.16,0.01c-0.44,0-0.89,0-1.34,0.01C7.86,24.24,7.75,24.15,7.69,23.97z
		 M5.92,20.44c0.12,0,0.23,0,0.35-0.01c0.11-0.01,0.16-0.08,0.13-0.19c-0.01-0.05-0.02-0.1-0.05-0.14c-0.23-0.7-0.47-1.39-0.71-2.1
		c-0.02-0.07-0.06-0.13-0.1-0.2c-0.04-0.06-0.12-0.05-0.16,0.01c-0.04,0.07-0.06,0.13-0.08,0.2c-0.13,0.37-0.26,0.74-0.38,1.13
		l-0.36,1.04c-0.05,0.17,0,0.25,0.18,0.25c0.24,0.01,0.48,0,0.72,0v0.01H5.92z"/>
	<path d="M16.78,24c-0.05-0.08-0.11-0.14-0.16-0.22c-1.28-1.72-2.57-3.43-3.86-5.13c-0.07-0.11-0.13-0.25-0.29-0.29
		c-0.16,0.11-0.08,0.28-0.08,0.42c-0.01,1.64,0,3.29,0,4.93c0,0.52-0.01,0.52-0.54,0.52c-0.35,0.01-0.68,0.01-1.03,0
		c-0.2,0-0.25-0.06-0.26-0.25c-0.01-0.1,0-0.2,0-0.3v-7.99c0-0.13,0-0.25,0.01-0.38c0-0.08,0.06-0.13,0.14-0.16
		c0.06-0.01,0.12-0.01,0.19-0.01c0.42,0,0.84,0.01,1.26,0c0.22-0.01,0.36,0.06,0.48,0.24c0.06,0.1,0.13,0.19,0.2,0.28l3.95,5.25
		c0.07,0.11,0.16,0.2,0.24,0.3c0.04,0.04,0.12,0.01,0.13-0.04c0.01-0.13,0.02-0.25,0.02-0.38v-5.04c0-0.12,0-0.23,0-0.35
		c0.01-0.19,0.06-0.25,0.25-0.26c0.46,0,0.92,0,1.38,0.01c0.14,0,0.2,0.06,0.22,0.2v0.35c0,1.32,0,2.65,0,3.97v4.02
		c0,0.13,0,0.25-0.01,0.38c-0.01,0.08-0.07,0.13-0.16,0.14c-0.06,0.01-0.12,0.01-0.18,0.01c-0.48,0-0.95,0-1.42,0.01
		C17.06,24.24,16.9,24.18,16.78,24z"/>
	<path d="M20.05,23.75c-0.01-1.36,0-2.72,0-4.09c0-1.32-0.01-2.65,0-3.97c0-0.13,0-0.25,0.01-0.38c0-0.08,0.06-0.14,0.14-0.16
		c0.1-0.01,0.2-0.01,0.3-0.01h2.87c2.42,0.01,4.44,1.99,4.49,4.41c0.06,2.6-1.97,4.67-4.57,4.68c-0.91,0.01-1.82,0.01-2.75,0
		C20.05,24.23,20.05,24.23,20.05,23.75z M23.47,22.26c1.82-0.1,2.97-2.06,2.16-3.71c-0.46-0.92-1.22-1.4-2.25-1.46
		c-0.31-0.02-0.64-0.01-0.95,0c-0.41,0-0.43,0.02-0.43,0.43v2.13c0,0.4,0,0.79,0,1.19c0,0.37,0,0.74,0.01,1.1
		c0,0.26,0.05,0.31,0.31,0.31C22.7,22.27,23.09,22.28,23.47,22.26z"/>
	<path d="M32.39,20.42c-0.02-0.11-0.04-0.2-0.04-0.31c-0.01-0.13,0-0.28,0-0.42c-0.05-2.25,1.69-4.41,4.17-4.68
		c1.54-0.16,2.87,0.31,3.96,1.43c0.29,0.29,0.29,0.32-0.04,0.59c-0.31,0.25-0.64,0.52-0.96,0.77c-0.22,0.17-0.25,0.17-0.44-0.01
		c-0.05-0.04-0.07-0.07-0.12-0.11c-1.1-1.02-2.82-0.96-3.86,0.12c-1.03,1.08-1.02,2.77,0.01,3.84c1.04,1.08,2.77,1.13,3.86,0.1
		c0.32-0.3,0.34-0.29,0.66-0.02l0.86,0.68c0.07,0.06,0.14,0.12,0.2,0.18c0.05,0.06,0.05,0.12,0.01,0.18s-0.08,0.13-0.13,0.18
		c-1.38,1.4-3.05,1.86-4.91,1.28C33.8,23.64,32.72,22.32,32.39,20.42z"/>
	<path d="M40.7,19.7c0-2.64,2.21-4.77,4.76-4.71c2.43-0.04,4.7,1.98,4.7,4.74c0,2.6-2.11,4.71-4.73,4.71
		C42.67,24.44,40.69,22.16,40.7,19.7z M48.2,19.74c0.01-1.52-1.22-2.78-2.75-2.79c-1.51-0.01-2.78,1.24-2.79,2.76
		c-0.01,1.5,1.22,2.75,2.73,2.77C46.92,22.51,48.19,21.26,48.2,19.74z"/>
	<path d="M50.93,23.75c-0.01-1.36,0-2.72,0-4.09c0-1.32-0.01-2.65,0-3.97c0-0.13,0-0.25,0.01-0.38c0-0.08,0.06-0.14,0.14-0.16
		c0.1-0.01,0.2-0.01,0.3-0.01h2.87c2.42,0.01,4.44,1.99,4.49,4.41c0.06,2.6-1.97,4.67-4.57,4.68c-0.91,0.01-1.82,0.01-2.75,0
		C50.93,24.23,50.93,24.23,50.93,23.75z M54.34,22.26c1.82-0.1,2.97-2.06,2.16-3.71c-0.46-0.92-1.22-1.4-2.25-1.46
		c-0.31-0.02-0.64-0.01-0.95,0c-0.41,0-0.43,0.02-0.43,0.43v2.13c0,0.4,0,0.79,0,1.19c0,0.37,0,0.74,0.01,1.1
		c0,0.26,0.05,0.31,0.31,0.31C53.58,22.27,53.96,22.28,54.34,22.26z"/>
	<path d="M60.13,24.23c-0.22,0-0.26-0.06-0.28-0.28v-0.3c0-2.65,0-5.3,0-7.95c0-0.58-0.02-0.56,0.56-0.56h1
		c0.22,0.01,0.26,0.06,0.28,0.28v0.35c0,1.31,0,2.61,0,3.93v4.04c0,0.49,0,0.49-0.49,0.49C60.85,24.24,60.49,24.24,60.13,24.23z"/>
	<path d="M69.25,24c-0.05-0.08-0.11-0.14-0.16-0.22c-1.28-1.72-2.57-3.43-3.86-5.13c-0.07-0.11-0.13-0.25-0.29-0.29
		c-0.16,0.11-0.08,0.28-0.08,0.42c-0.01,1.64,0,3.29,0,4.93c0,0.52-0.01,0.52-0.54,0.52c-0.35,0.01-0.68,0.01-1.03,0
		c-0.2,0-0.25-0.06-0.26-0.25c-0.01-0.1,0-0.2,0-0.3v-7.99c0-0.13,0-0.25,0.01-0.38c0-0.08,0.06-0.13,0.14-0.16
		c0.06-0.01,0.12-0.01,0.19-0.01c0.42,0,0.84,0.01,1.26,0c0.22-0.01,0.36,0.06,0.48,0.24c0.06,0.1,0.13,0.19,0.2,0.28l3.95,5.25
		c0.07,0.11,0.16,0.2,0.24,0.3c0.04,0.04,0.12,0.01,0.13-0.04c0.01-0.13,0.02-0.25,0.02-0.38v-5.04c0-0.12,0-0.23,0-0.35
		c0.01-0.19,0.06-0.25,0.25-0.26c0.46,0,0.92,0,1.38,0.01c0.14,0,0.2,0.06,0.22,0.2v0.35c0,1.32,0,2.65,0,3.97v4.02
		c0,0.13,0,0.25-0.01,0.38c-0.01,0.08-0.07,0.13-0.16,0.14c-0.06,0.01-0.12,0.01-0.18,0.01c-0.48,0-0.95,0-1.42,0.01
		C69.52,24.24,69.37,24.18,69.25,24z"/>
	<path d="M72.29,20.14c-0.22-2.51,1.5-4.71,3.98-5.07c1.52-0.22,2.87,0.22,3.99,1.29c0.1,0.08,0.18,0.18,0.26,0.28
		c0.07,0.11,0.06,0.18-0.04,0.28l-0.14,0.12c-0.31,0.25-0.61,0.49-0.92,0.74c-0.29,0.22-0.29,0.22-0.54-0.01
		c-0.05-0.05-0.1-0.1-0.14-0.13c-0.88-0.7-1.83-0.86-2.87-0.41c-1.03,0.46-1.58,1.3-1.64,2.42c-0.07,1.48,1.18,2.77,2.66,2.79
		c0.66,0.01,1.25-0.18,1.77-0.59c0.17-0.12,0.26-0.28,0.24-0.48c-0.01-0.1,0-0.18,0-0.28c-0.01-0.36-0.04-0.4-0.38-0.4
		c-0.22-0.01-0.43,0-0.65,0c-0.1,0-0.18-0.01-0.28-0.02c-0.08-0.01-0.13-0.06-0.14-0.14c-0.01-0.04-0.01-0.07-0.01-0.12
		c0-0.47-0.01-0.94,0-1.4c0-0.22,0.06-0.26,0.28-0.28c0.13-0.01,0.25,0,0.38,0h2.13c0.1,0,0.18-0.01,0.28,0
		c0.3,0,0.34,0.04,0.35,0.36v1.52c0,0.5-0.01,1,0,1.49c0,0.19-0.06,0.35-0.18,0.49c-1.15,1.51-3.17,2.17-5.04,1.63
		C73.8,23.69,72.44,22.04,72.29,20.14z"/>
</g>
</svg>
