<?xml version="1.0" encoding="UTF-8"?>
<svg id="Lager_1" data-name="Lager 1" xmlns="http://www.w3.org/2000/svg" version="1.1" viewBox="0 0 155.89 156.28">
  <defs>
    <style>
      .cls-1 {
        fill: #1d1d1b;
      }

      .cls-1, .cls-2 {
        stroke-width: 0px;
      }

      .cls-2 {
        fill: #000;
      }
    </style>
  </defs>
  <path class="cls-2" d="M76.15,61.86c0-8.89,0-17.78,0-26.67h-.09c0-8.69.02-17.37-.03-26.06,0-1.02-.32-2.06-.61-3.05-.08-.28-.65-.67-.92-.62-1.96.42-3.83-.32-5.73-.45-3.12-.22-6.17-.09-9.18.83-1.08.33-2.17.64-3.24.98-1.08.34-2.19.62-3.21,1.08-2.11.95-4.21,1.96-6.26,3.03-1.93,1.01-3.86,2.05-5.67,3.26-2.39,1.6-4.74,3.3-6.98,5.11-2.03,1.65-3.98,3.41-5.86,5.23-1.42,1.38-2.76,2.84-4.03,4.35-2.08,2.47-4.14,4.97-6.06,7.57-1.33,1.8-2.37,3.81-3.61,5.67-.27.41-.55.82-.8,1.25-.98,1.72-1.73,3.56-2.53,5.37-.32.71-.61,1.43-.9,2.16-.52,1.3-1.02,2.6-1.53,3.91-.05.13-.1.27-.15.41-.46,1.27-1,2.53-1.36,3.83-.45,1.61-.78,3.27-1.14,4.91-.41,1.9-1.03,3.79-1.15,5.71-.26,4.14-.35,8.3-.33,12.44.01,2.58.08,5.17.78,7.71.53,1.96.72,4.01,1.06,6.01.02.11.08.22.12.33.68,2.03,1.36,4.07,2.03,6.1.23.68.48,1.35.77,2.01.57,1.32,1.18,2.62,1.85,3.89,3.13,6.07,7.03,2.85,7.7,2.22.08-.02.16-.05.24-.07.15.02.23-.02.28-.09,1.46-.52,2.74-1.39,4.05-2.2,1.99-1.22,3.98-2.43,5.97-3.63,1.42-.86,2.83-1.71,4.26-2.54,1.87-1.09,3.77-2.15,5.64-3.25.94-.56,1.82-1.21,2.75-1.78,1.23-.75,2.49-1.44,3.73-2.17,1.44-.86,2.86-1.76,4.31-2.62,1.82-1.08,3.66-2.14,5.49-3.21,1.46-.85,2.9-1.73,4.39-2.54,1.51-.82,3.05-1.61,4.61-2.31,2.13-1,4.09-2.02,6.44-2.91.11.02.22.05.36.06l2.34-1.05c1.28-.77,2.08-2.13,2.14-3.62.03-.97,0-2.26,0-2.85.04-3.91.06-7.83.06-11.74ZM61.31,80.23c-.66.34-1.31.69-1.97,1.02-.77.38-1.57.69-2.31,1.12-.82.48-1.56,1.09-2.38,1.57-1.88,1.1-3.81,2.12-5.69,3.22-1.85,1.08-3.67,2.23-5.5,3.35-1.98,1.21-3.95,2.41-5.93,3.61-1.46.89-2.93,1.79-4.39,2.68-2.48,1.52-4.95,3.06-7.46,4.54-1.76,1.04-3.6,1.96-5.36,3.01-1.01.6-1.97,1.3-2.88,2.04-.61-.87-1.18-1.71-1.46-2.27-.72-1.45-1.2-3.03-1.78-4.55-.12-.33-.13-.73-.33-.98-.99-1.2-1.02-2.69-1.35-4.1-.25-1.07-.64-2.11-.91-3.18-.52-2-1.09-4-1.47-6.03-.29-1.54-.35-3.13-.46-4.71-.12-1.72-.17-3.45-.25-5.17-.07,0-.15-.02-.22-.03.45-3.47.85-6.95,1.37-10.41.29-1.9.67-3.79,1.2-5.64.57-1.97,1.32-3.89,2.06-5.8.57-1.48,1.18-2.95,1.86-4.38,1.58-3.32,3.36-6.53,5.53-9.51,1.13-1.55,2.18-3.17,3.4-4.64,1.76-2.13,3.56-4.26,5.51-6.22,2.3-2.3,4.66-4.56,7.21-6.57,2.52-1.99,5.22-3.8,8.01-5.39,2.79-1.6,5.76-2.9,8.71-4.21,4.2-1.87,8.64-2.54,13.22-2.32.96.05,1.91.25,2.85.45.74.15,1.05.56,1.04,1.43-.03,2.01.12,4.03.22,6.04.09,1.81.29,3.62.3,5.43.03,6.35,0,12.7-.01,19.04-.01,5.7.04,11.4-.07,17.1-.1,5.23-.4,10.46-.58,15.69,0,.06,0,.12,0,.18-1.93.77-3.81,1.65-5.69,2.53-1.36.64-2.68,1.37-4.01,2.06Z"/>
  <path class="cls-2" d="M94.86,84.55c7.49,4.24,14.99,8.47,22.49,12.7l.04-.08c7.32,4.14,14.64,8.29,21.99,12.39.86.48,1.88.71,2.86.94.28.06.88-.23.96-.48.58-1.86,2.09-3.07,3.11-4.62,1.67-2.53,3.01-5.17,3.67-8.13.24-1.07.49-2.13.71-3.2.23-1.07.52-2.14.62-3.23.2-2.24.35-4.48.42-6.72.06-2.11.11-4.23-.05-6.33-.21-2.78-.52-5.57-.99-8.32-.42-2.5-.98-4.98-1.62-7.43-.48-1.85-1.08-3.68-1.75-5.47-1.09-2.93-2.22-5.86-3.5-8.71-.88-1.98-2.08-3.81-3.06-5.74-.22-.43-.43-.86-.68-1.27-.99-1.64-2.18-3.15-3.32-4.69-.45-.61-.92-1.2-1.39-1.79-.85-1.06-1.71-2.1-2.57-3.15-.09-.11-.18-.22-.27-.32-.85-1-1.66-2.04-2.58-2.97-1.15-1.15-2.38-2.21-3.6-3.3-1.4-1.25-2.7-2.67-4.26-3.69-3.37-2.19-6.83-4.25-10.33-6.21-2.18-1.22-4.39-2.39-6.87-3.02-1.9-.48-3.72-1.3-5.58-1.97-.1-.04-.22-.04-.33-.06-2.04-.4-4.08-.79-6.12-1.19-.68-.13-1.37-.24-2.06-.31-1.38-.14-2.77-.25-4.16-.29-6.61-.25-5.75,4.57-5.54,5.44-.02.08-.03.16-.05.23-.09.11-.1.21-.05.28-.26,1.48-.13,2.97-.08,4.46.08,2.26.15,4.51.22,6.77.05,1.6.09,3.2.12,4.81.03,2.1.01,4.2.06,6.31.02,1.06.16,2.11.19,3.17.04,1.39.02,2.79.06,4.18.04,1.63.12,3.25.16,4.88.04,2.05.06,4.11.09,6.16.02,1.64.08,3.27.05,4.91-.03,1.67-.1,3.33-.25,4.99-.17,2.28-.24,4.41-.62,6.81-.07.08-.15.17-.22.27l-.23,2.47c.04,1.44.8,2.77,2.04,3.53.8.49,1.91,1.07,2.4,1.36,3.28,1.89,6.57,3.78,9.87,5.64ZM86.44,63.29c.03-.72.04-1.43.08-2.15.05-.83.16-1.66.15-2.48-.01-.92-.18-1.83-.19-2.75-.03-2.11.03-4.22,0-6.33-.03-2.08-.13-4.16-.2-6.23-.08-2.24-.15-4.48-.22-6.72-.06-1.66-.11-3.32-.17-4.98-.09-2.82-.22-5.63-.27-8.45-.04-1.98.06-3.97.02-5.95-.03-1.14-.16-2.28-.35-3.4,1.03-.1,2-.18,2.61-.15,1.57.08,3.13.43,4.69.67.33.05.68.24.99.19,1.48-.26,2.76.42,4.1.81,1.03.3,2.09.47,3.12.75,1.93.52,3.89.99,5.78,1.63,1.44.49,2.81,1.19,4.19,1.85,1.51.72,2.99,1.5,4.48,2.25.04-.06.09-.11.13-.17,2.71,2.03,5.46,4.02,8.13,6.11,1.46,1.14,2.88,2.37,4.18,3.7,1.39,1.42,2.65,2.97,3.91,4.5.98,1.19,1.93,2.4,2.81,3.66,2.05,2.91,3.91,5.94,5.39,9.19.77,1.69,1.63,3.35,2.3,5.08.96,2.5,1.9,5.03,2.62,7.61.85,3.03,1.63,6.1,2.11,9.21.47,3.08.71,6.21.73,9.33.02,3.12-.3,6.24-.59,9.35-.42,4.43-1.97,8.5-4.34,12.25-.5.78-1.12,1.49-1.74,2.19-.48.56-.97.62-1.7.19-1.68-.98-3.45-1.81-5.2-2.69-1.57-.79-3.19-1.48-4.72-2.33-5.37-3-10.7-6.05-16.05-9.08-4.8-2.73-9.64-5.4-14.39-8.2-4.36-2.58-8.63-5.32-12.96-7.96-.05-.03-.1-.06-.15-.09.27-1.99.42-4,.58-6.01.11-1.45.12-2.91.17-4.36Z"/>
  <path class="cls-2" d="M82.32,82.92c-.5-.29-1.59-.99-2.44-1.46-1.31-.72-2.89-.73-4.21-.03l-2.1,1.47c-.05.12-.1.23-.13.34-1.96,1.57-3.85,2.72-5.8,4.04-1.41.98-2.87,1.89-4.35,2.77-1.45.86-2.95,1.65-4.43,2.47-1.86,1.03-3.71,2.06-5.57,3.07-1.48.8-2.98,1.56-4.45,2.35-1.27.68-2.51,1.41-3.78,2.09-.97.51-1.98.93-2.94,1.45-1.91,1.04-3.79,2.12-5.69,3.17-1.45.8-2.91,1.58-4.37,2.35-2.06,1.09-4.12,2.18-6.18,3.26-1.37.72-2.77,1.36-3.97,2.35-.09,0-.16.05-.22.19-.06.05-.12.11-.18.16-.89.26-5.65,1.95-2.04,7.75.74,1.23,1.55,2.42,2.38,3.59.42.58.86,1.15,1.33,1.69,1.4,1.63,2.8,3.25,4.2,4.88.08.09.13.2.22.27,1.55,1.33,3.21,2.54,4.62,4,1.83,1.9,4.01,3.29,6.22,4.63,3.55,2.14,7.17,4.2,10.85,6.1,1.71.88,3.65,1.32,5.49,1.94,1.59.53,3.18,1.1,4.8,1.54,1.3.35,2.65.54,3.98.79.14.03.28.05.43.08,1.38.23,2.76.47,4.14.69.77.12,1.54.24,2.31.33,1.97.24,3.93.54,5.91.58.49.01.99-.02,1.48-.04,2.23-.11,4.49.02,6.72-.19,3.21-.31,6.42-.79,9.6-1.32,1.95-.32,3.89-.72,5.8-1.23,2.53-.68,5.04-1.44,7.49-2.34,2.71-.99,5.36-2.13,7.97-3.37,1.97-.93,3.84-2.06,5.7-3.19,1.98-1.21,3.91-2.49,5.82-3.82.92-.64,1.73-1.45,2.58-2.2.85-.75,1.67-1.52,2.51-2.28,2.33-2.11,4-4.66,5.42-7.45.87-1.71,1.18-3.68,2.55-5.15.18-.2.14-.89-.06-1.1-.7-.76-1.43-1.56-2.3-2.09-7.43-4.5-14.9-8.94-22.35-13.39l.05-.08c-7.63-4.56-15.26-9.13-22.89-13.68-3.36-2-6.73-3.99-10.11-5.97ZM72.88,89.82c1.72-1.16,3.45-2.33,5.1-3.59.05.03.1.05.15.08,4.58,2.54,9.22,4.96,13.77,7.56,4.95,2.83,9.82,5.8,14.72,8.72,5.46,3.25,10.92,6.48,16.35,9.76,1.55.94,3,2.03,4.5,3.04,1.68,1.12,3.33,2.28,5.07,3.29.75.44.95.91.7,1.63-.32.91-.63,1.83-1.08,2.68-2.15,4.04-5.01,7.51-8.77,10.16-2.64,1.85-5.28,3.73-8.08,5.31-2.8,1.58-5.74,2.96-8.74,4.11-3.03,1.16-6.19,2.03-9.34,2.82-2.68.67-5.43,1.12-8.16,1.54-1.89.29-3.82.36-5.73.53-3.67.33-7.34.21-11-.14-1.58-.15-3.15-.38-4.72-.65-2.02-.35-4.06-.68-6.04-1.21-1.85-.49-3.68-1.13-5.46-1.86-3.24-1.33-6.43-2.77-9.64-4.17.03-.07.06-.14.09-.2-1.44-.95-2.89-1.88-4.31-2.87-1.3-.9-2.63-1.77-3.8-2.81-1.55-1.37-2.97-2.88-4.42-4.35-.78-.79-1.47-1.65-2.26-2.42-1.04-1.01-2.3-1.8-2.83-3.26-.11-.3-.46-.52-.67-.79-1.01-1.28-2.12-2.5-2.99-3.86-.34-.53-.76-1.45-1.2-2.42,1.1-.4,2.2-.87,3.23-1.42,1.8-.97,3.53-2.08,5.33-3.06,2.56-1.39,5.15-2.72,7.72-4.07,1.52-.8,3.04-1.6,4.56-2.39,2.05-1.08,4.1-2.16,6.15-3.23,1.9-1,3.82-1.97,5.7-3,1.91-1.05,3.78-2.18,5.69-3.24.83-.46,1.74-.77,2.57-1.23.75-.41,1.43-.94,2.15-1.41.62-.4,1.26-.78,1.89-1.17,1.28-.79,2.58-1.54,3.83-2.38Z"/>
  <g>
    <path class="cls-1" d="M29.88,51.75c-.02-.57-.04-1.13-.04-1.7,0-.32.04-.65.14-.93.06-.22.18-.4.35-.57.14-.12.31-.18.49-.18.18-.02.39-.02.57-.02s.37.04.55.06c.22.04.37.16.47.36.08.18.16.36.24.57.02.06.02.12.02.18,0,.65.02,1.25.02,1.88,0,1.39.02,2.79.02,4.16,0,.06.02.14.04.2s.08.08.16.08c.06,0,.08-.04.1-.1.08-.18.14-.38.22-.57.27-.59.53-1.17.84-1.72.06-.1.1-.2.14-.32.2-.38.49-.61.96-.61.26,0,.41.1.51.32.22.42.45.83.65,1.27.22.48.45.97.65,1.47.04.1.1.16.24.16.08-.02.12-.04.12-.12v-2.83c0-.83.02-1.64.04-2.46,0-.38.02-.79.06-1.19.02-.24.14-.44.26-.65.12-.16.29-.22.47-.22s.39.04.57.04c.14.02.26.02.41,0,.31-.02.55.08.77.28.33.28.45.67.45,1.07,0,.71-.02,1.43-.04,2.16-.02.79-.08,1.6-.06,2.38.02.54.02,1.09.02,1.62v2.89c0,.14-.02.28-.02.42-.06.71-.04,1.41-.04,2.1,0,.3-.06.61-.14.91-.12.34-.37.52-.75.54-.22.02-.47.06-.69.06-.37.04-.71-.06-1.04-.2-.27-.12-.45-.3-.55-.59-.2-.44-.37-.93-.55-1.39-.26-.63-.59-1.21-.9-1.82-.12-.22-.22-.44-.35-.69l-.02-.02c-.1-.2-.29-.22-.41-.02-.04.04-.08.1-.1.14-.33.63-.65,1.23-.96,1.86-.2.46-.37.95-.57,1.41-.06.16-.12.36-.22.5-.08.14-.22.26-.35.36-.33.3-.71.4-1.14.4-.2,0-.39,0-.57.02-.2,0-.39-.06-.53-.2-.2-.22-.41-.42-.45-.75-.02-.2-.04-.4-.06-.59-.1-.99-.06-1.98-.04-2.97,0-1.01.02-2.02.06-3.43-.02-.75-.04-1.9-.04-3.07Z"/>
    <path class="cls-1" d="M42.37,52.98c.02-.85.02-1.72.02-2.56.02-.14.02-.26.04-.38.06-.3.1-.61.16-.91.12-.4.39-.63.79-.67.37-.02.73-.06,1.1-.08h1.08c.55-.02,1.12-.02,1.69-.02.22-.02.45,0,.67,0,.37.02.75.02,1.12.04.08,0,.16,0,.22.02.12,0,.22.02.33.02.35,0,.61.16.73.46.04.14.06.3.06.44.02.4.02.79.04,1.17,0,.1-.02.18,0,.26.02.14-.04.26-.1.38-.08.16-.24.18-.39.2-.33.02-.63.04-.96.04-.73.02-1.49.04-2.22.06-.26,0-.51.02-.77.06-.16.02-.33.1-.39.28-.16.38-.2.81-.12,1.21.06.22.18.34.39.42.18.06.39.08.57.08h1.75c.2,0,.39.04.59.12.08.04.16.1.18.2.16.44.22.91.08,1.37-.06.16-.16.32-.27.46-.08.12-.2.16-.35.16-.39.04-.77.1-1.16.14-.41.02-.81.08-1.2.08-.24,0-.51.22-.55.46-.02.18-.04.36-.04.57-.02.59-.02,1.19-.02,1.8,0,.16,0,.32.02.48.02.16.1.3.18.42.08.1.22.12.35.12.39,0,.79,0,1.2-.02.39,0,.79-.02,1.18-.04.29,0,.55-.02.81-.02.24,0,.49.02.71.12.08.04.16.08.22.12.27.2.41.46.41.81,0,.22.02.44.04.65v.55c-.02.2-.16.34-.31.46-.04.04-.14.06-.2.06-.67.02-1.34.02-2.02.04-.35,0-.69.04-1.04.04-.55.02-1.08.02-1.63.04-.39.02-.77.06-1.16.08-.37.02-.75.02-1.12-.06-.2-.02-.39-.1-.55-.2-.06-.06-.12-.1-.14-.16-.14-.24-.2-.46-.22-.73-.04-.52-.02-1.05-.02-1.57.04-1.05.08-2.1.1-3.15.02-.38,0-.77,0-.99.04-1.09.06-2.02.08-2.97Z"/>
    <path class="cls-1" d="M52.51,55.34c-.02-.54-.06-1.09-.08-1.64-.02-.79-.04-1.55.02-2.34,0-.22,0-.44-.02-.67-.04-.38-.04-.77.04-1.15.04-.2.08-.42.16-.63.14-.4.43-.65.88-.67h.39c.33.02.65.02,1,.04h.14c.51-.08,1.04-.1,1.55-.1.41,0,.79,0,1.2.04.41.04.84.08,1.22.3.2.1.39.22.55.4.18.24.37.46.51.73.33.52.53,1.11.63,1.72.04.32.06.61.04.93,0,.26,0,.57-.04.83-.06.42-.14.83-.37,1.19-.1.16-.22.32-.39.46-.14.16-.16.32-.14.52.02.02.04.06.06.08.08.1.14.2.22.28.22.24.37.5.47.81.06.24.16.46.2.71.08.44.1.89.08,1.33-.02.32-.06.65-.08.99-.04.3-.08.61-.12.91-.04.14-.08.28-.14.42-.16.38-.37.73-.63,1.05-.37.44-.81.69-1.39.73-.18.02-.39.06-.57.08-.2.02-.41.02-.59.04-.37,0-.71,0-1.08-.02-.35,0-.71-.02-1.08-.06-.53-.06-1.06-.08-1.59-.02-.24.02-.45-.08-.65-.22-.35-.28-.45-.65-.43-1.07,0-.61.02-1.21.04-1.84,0-.5.02-1.03.02-1.53-.02-.89-.02-1.76-.04-2.64ZM55.48,52.56c0,.28-.02.54,0,.83,0,.32.26.52.59.48.06-.02.14-.02.2-.02.33-.02.65-.04.96-.06.26-.04.47-.18.63-.38.06-.08.08-.16.08-.26,0-.48-.12-.95-.35-1.39-.16-.36-.49-.48-.88-.52-.26-.04-.53,0-.79.04-.24.02-.49.18-.49.54.02.24,0,.5,0,.75h.04ZM55.71,59.68c.02.08.06.18.1.26.02.06.1.1.18.1.63,0,1.24-.08,1.79-.42.31-.2.49-.48.53-.83.04-.57-.06-1.11-.33-1.62-.16-.34-.45-.52-.83-.59-.41-.04-.81-.04-1.22.04-.08.02-.14.06-.18.14-.08.22-.14.44-.12.67v.77c.04.5.06.99.08,1.47Z"/>
  </g>
  <g>
    <path class="cls-1" d="M101.95,57.17c.02-.85.02-1.72.02-2.56.02-.14.02-.26.04-.38.06-.3.1-.61.16-.91.12-.4.39-.63.79-.67.37-.02.73-.06,1.1-.08h1.08c.55-.02,1.12-.02,1.69-.02.22-.02.45,0,.67,0,.37.02.75.02,1.12.04.08,0,.16,0,.22.02.12,0,.22.02.33.02.35,0,.61.16.73.46.04.14.06.3.06.44.02.4.02.79.04,1.17,0,.1-.02.18,0,.26.02.14-.04.26-.1.38-.08.16-.24.18-.39.2-.33.02-.63.04-.96.04-.73.02-1.49.04-2.22.06-.26,0-.51.02-.77.06-.16.02-.33.1-.39.28-.16.38-.2.81-.12,1.21.06.22.18.34.39.42.18.06.39.08.57.08h1.75c.2,0,.39.04.59.12.08.04.16.1.18.2.16.44.22.91.08,1.37-.06.16-.16.32-.27.46-.08.12-.2.16-.35.16-.39.04-.77.1-1.16.14-.41.02-.81.08-1.2.08-.24,0-.51.22-.55.46-.02.18-.04.36-.04.57-.02.59-.02,1.19-.02,1.8,0,.16,0,.32.02.48.02.16.1.3.18.42.08.1.22.12.35.12.39,0,.79,0,1.2-.02.39,0,.79-.02,1.18-.04.29,0,.55-.02.81-.02.24,0,.49.02.71.12.08.04.16.08.22.12.26.2.41.46.41.81,0,.22.02.44.04.65v.55c-.02.2-.16.34-.31.46-.04.04-.14.06-.2.06-.67.02-1.34.02-2.02.04-.35,0-.69.04-1.04.04-.55.02-1.08.02-1.63.04-.39.02-.77.06-1.16.08-.37.02-.75.02-1.12-.06-.2-.02-.39-.1-.55-.2-.06-.06-.12-.1-.14-.16-.14-.24-.2-.46-.22-.73-.04-.52-.02-1.05-.02-1.57.04-1.05.08-2.1.1-3.15.02-.38,0-.77,0-.99.04-1.09.06-2.02.08-2.97Z"/>
    <path class="cls-1" d="M114.87,66.4c0,.2-.12.32-.24.44-.1.08-.22.14-.37.14-.31.02-.63.06-.94.06-.24,0-.49-.08-.73-.16-.16-.06-.29-.18-.37-.3-.08-.14-.14-.28-.2-.42-.02-.08-.04-.18-.04-.26.1-1.37.06-2.77.06-4.14,0-1.49-.02-2.97,0-4.44,0-.54.02-1.09.04-1.64,0-.54.02-1.09.02-1.64.02-.28.06-.54.18-.79.18-.32.45-.5.81-.5.24-.02.49,0,.73,0,.55.02,1.1.02,1.67.02.51.02,1.04.04,1.55.06.18,0,.39,0,.57.02h.12c.61.12,1.2.3,1.65.75.27.26.51.54.65.89.1.28.22.57.33.85.04.1.08.2.08.3.08.4.14.79.18,1.19.06.42.08.85.08,1.27.02.73-.12,1.43-.39,2.1-.16.46-.45.87-.73,1.25-.04.06-.1.1-.14.16-.18.12-.2.32-.16.5.02.12.08.22.12.34.24.46.49.93.67,1.43.12.3.29.61.43.91.1.26.24.52.29.81.08.36.04.75-.26,1.03-.08.1-.22.16-.35.2-.2.04-.41.06-.63.08-.16.04-.35.04-.51.06-.04.02-.1.02-.14.02-.22-.06-.45-.12-.65-.24-.29-.14-.41-.42-.55-.67-.29-.48-.51-.99-.75-1.51-.18-.44-.41-.87-.61-1.31-.04-.08-.1-.16-.2-.18-.2-.08-.43-.1-.65-.02-.12.04-.22.12-.29.24-.1.2-.16.42-.2.65-.04.2-.04.4-.06.61v.56c-.02.42-.06.85-.06,1.27ZM115.01,57.98v2.06c.06.18.18.28.43.28.22,0,.45-.02.67-.04.29-.02.55-.08.79-.18.18-.08.33-.2.41-.4.04-.08.08-.16.12-.26.22-.42.35-.87.37-1.35.02-.36.02-.71.02-1.07s-.08-.71-.22-1.05c-.06-.12-.16-.22-.29-.28-.26-.12-.53-.2-.81-.22-.39-.02-.77,0-1.16,0-.1,0-.16.04-.22.1-.1.16-.16.32-.16.5.02.63.02,1.27.02,1.92h.04Z"/>
    <path class="cls-1" d="M127.53,52.79c.45.02.9.04,1.32.06h.12c.59.12,1.16.28,1.61.73.29.26.53.56.67.91.12.3.22.59.35.87.02.08.04.16.06.24.08.42.18.85.2,1.27.02.46.06.93.06,1.37,0,.91-.22,1.78-.67,2.56-.18.32-.41.65-.69.89-.18.16-.39.3-.61.38-.26.1-.49.22-.73.34-.16.1-.35.18-.55.24-.37.08-.75.14-1.14.2-.1.02-.2.02-.31.02-.24.02-.49.06-.71.08-.1,0-.14.06-.16.14-.14.22-.18.48-.18.73-.02.24,0,.5-.02.75,0,.36,0,.73-.02,1.11-.04.28-.06.61-.2.87-.06.1-.12.18-.22.24-.35.16-.71.24-1.08.22-.08,0-.14-.02-.2-.04-.22-.04-.43-.12-.63-.18-.18-.04-.29-.16-.39-.28-.12-.18-.22-.36-.2-.59.1-1.39.06-2.79.06-4.18v-4.1c0-.83-.04-1.66-.12-2.5-.04-.46,0-.95.08-1.41.02-.08.04-.18.06-.28.06-.4.37-.69.77-.71.43-.02.83.02,1.24.02h.53c.59,0,1.16.02,1.71.02ZM126.23,59.7c0,.1.02.18.04.28.04.24.08.28.35.3.24.04.49.06.73.02.26-.04.53-.1.77-.2.18-.08.33-.2.41-.4.04-.08.08-.16.12-.26.22-.42.35-.87.37-1.35.02-.36.04-.71.02-1.07,0-.36-.06-.71-.22-1.05-.06-.12-.16-.22-.29-.28-.24-.12-.51-.2-.79-.22-.39-.02-.77,0-1.16,0-.12,0-.2.06-.27.16-.02.06-.06.12-.06.2-.02.2-.06.4-.06.63,0,.79.02,1.6.04,2.38v.87Z"/>
  </g>
  <g>
    <path class="cls-1" d="M70.15,119.34c-.02-.54-.06-1.09-.08-1.64-.02-.79-.04-1.55.02-2.34,0-.22,0-.44-.02-.67-.04-.38-.04-.77.04-1.15.04-.2.08-.42.16-.63.14-.4.43-.65.88-.67h.39c.33.02.65.02,1,.04h.14c.51-.08,1.04-.1,1.55-.1.41,0,.79,0,1.2.04.41.04.84.08,1.22.3.2.1.39.22.55.4.18.24.37.46.51.73.33.52.53,1.11.63,1.72.04.32.06.61.04.93,0,.26,0,.57-.04.83-.06.42-.14.83-.37,1.19-.1.16-.22.32-.39.46-.14.16-.16.32-.14.52.02.02.04.06.06.08.08.1.14.2.22.28.22.24.37.5.47.81.06.24.16.46.2.71.08.44.1.89.08,1.33-.02.32-.06.65-.08.99-.04.3-.08.61-.12.91-.04.14-.08.28-.14.42-.16.38-.37.73-.63,1.05-.37.44-.81.69-1.39.73-.18.02-.39.06-.57.08-.2.02-.41.02-.59.04-.37,0-.71,0-1.08-.02-.35,0-.71-.02-1.08-.06-.53-.06-1.06-.08-1.59-.02-.24.02-.45-.08-.65-.22-.35-.28-.45-.65-.43-1.07,0-.61.02-1.21.04-1.84,0-.5.02-1.03.02-1.53-.02-.89-.02-1.76-.04-2.64ZM73.12,116.56c0,.28-.02.54,0,.83,0,.32.26.52.59.48.06-.02.14-.02.2-.02.33-.02.65-.04.96-.06.26-.04.47-.18.63-.38.06-.08.08-.16.08-.26,0-.48-.12-.95-.35-1.39-.16-.36-.49-.48-.88-.52-.26-.04-.53,0-.79.04-.24.02-.49.18-.49.54.02.24,0,.5,0,.75h.04ZM73.35,123.68c.02.08.06.18.1.26.02.06.1.1.18.1.63,0,1.24-.08,1.79-.42.31-.2.49-.48.53-.83.04-.57-.06-1.11-.33-1.62-.16-.34-.45-.52-.83-.59-.41-.04-.81-.04-1.22.04-.08.02-.14.06-.18.14-.08.22-.14.44-.12.67v.77c.04.5.06.99.08,1.47Z"/>
    <path class="cls-1" d="M82.81,119.83c.02.32.02.65.02.97v2.04c0,.4-.04.79-.06,1.17,0,.12,0,.24-.02.38,0,.54-.02,1.09-.04,1.64,0,.16-.06.32-.12.48-.02.06-.1.12-.16.14-.1.04-.22.08-.33.08-.41.02-.81.02-1.22.02-.06,0-.12,0-.18-.04-.18-.06-.31-.16-.31-.36-.02-.2-.06-.42-.08-.63-.02-.55-.02-1.09-.04-1.64,0-.55.02-1.11.04-1.66,0-.5.02-.99.02-1.49.02-1.39,0-2.77,0-4.16,0-.26-.02-.52-.02-.81v-1.98c-.04-.4.04-.79.16-1.17.12-.3.37-.44.67-.44.39-.02.77.02,1.18.02.18,0,.29.1.33.26.08.28.14.59.14.87v1.96c.02.77,0,1.55,0,2.34v.52h-.02c.02.5.02.99.04,1.47Z"/>
    <path class="cls-1" d="M92.86,115.67c-.12.36-.33.69-.49,1.03-.2.38-.43.75-.63,1.11-.22.4-.49.79-.73,1.17-.35.5-.69,1.03-1.04,1.53-.51.77-1,1.51-1.51,2.26-.14.22-.33.42-.49.65-.08.12-.14.24-.14.4,0,.18.1.28.26.28.41,0,.79-.02,1.2-.04.73,0,1.47,0,2.22-.02.16,0,.33.02.49,0,.35-.02.75.34.84.61.12.48.16.95.08,1.43-.06.28-.22.48-.41.69-.08.08-.16.08-.26.1-.37.06-.75.06-1.14.06s-.79-.02-1.18-.02c-.84-.02-1.67-.04-2.53-.04-.59,0-1.2.02-1.79.04-.31,0-.57-.1-.77-.3-.12-.12-.18-.28-.22-.42-.1-.36-.1-.71-.08-1.07.02-.2.04-.4.06-.61,0-.38.16-.73.31-1.07.02-.06.06-.1.1-.14.35-.44.63-.93.94-1.41.29-.44.59-.91.9-1.35.06-.12.14-.22.2-.34.26-.46.59-.91.9-1.33.22-.3.43-.63.63-.93.22-.34.43-.71.65-1.05.18-.32.39-.65.57-.99.04-.06.04-.18.04-.28-.02-.1-.1-.14-.22-.16-.12,0-.24.02-.37,0-.37,0-.73-.02-1.1-.02-.49,0-1,.02-1.49.04-.29.02-.55-.06-.81-.14-.08-.02-.14-.06-.2-.12-.14-.18-.26-.38-.31-.63-.04-.32-.04-.67-.02-1.01,0-.1,0-.22.02-.32.06-.36.2-.48.55-.54.08-.02.16-.04.24-.06.06-.02.1-.02.16-.04.77,0,1.55-.02,2.32-.02.33,0,.67-.02,1-.02.06,0,.12-.02.18-.02.51-.06,1.02-.06,1.53-.04.35.02.71,0,1.08,0,.26,0,.45.12.53.34.12.32.16.67.18,1.01v.42c.02.46-.06.93-.24,1.39Z"/>
  </g>
</svg>